# Blender 3.1.2
# www.blender.org
mtllib inside.mtl
o inside
v -0.948520 -1.000000 0.149876
v -0.848735 1.999613 0.149876
v -0.948520 -1.000000 -0.149876
v -0.848735 1.999613 -0.149876
v 0.948520 -1.000000 0.149876
v 0.848735 1.999613 0.149876
v 0.948520 -1.000000 -0.149876
v 0.848735 1.999613 -0.149876
v -0.749630 -1.000000 -0.149876
v -0.749630 1.999613 0.149876
v -0.749630 1.999613 -0.149876
v -0.749630 -1.000000 0.149876
v 0.749630 1.999613 -0.149876
v 0.749630 -1.000000 0.149876
v 0.749630 -1.000000 -0.149876
v 0.749630 1.999613 0.149876
v -0.401347 2.500730 0.149876
v -0.401347 2.500730 -0.149876
v 0.401347 2.500730 0.149876
v 0.401347 2.500730 -0.149876
v -0.302242 2.500730 0.149876
v -0.302242 2.500730 -0.149876
v 0.302242 2.500730 -0.149876
v 0.302242 2.500730 0.149876
v 0.948520 -1.000000 -0.029659
v 0.848735 1.999613 -0.029659
v 0.749630 1.999613 -0.029659
v 0.749630 -1.000000 -0.029659
v 0.401347 2.500730 -0.029659
v 0.302242 2.500730 -0.029659
v -0.848735 1.999613 -0.029659
v -0.401347 2.500730 -0.029659
v -0.948520 -1.000000 -0.029659
v -0.749630 -1.000000 -0.029659
v -0.749630 1.999613 -0.029659
v -0.302242 2.500730 -0.029659
v 0.848735 1.999613 0.029659
v 0.749630 1.999613 0.029659
v 0.749630 -1.000000 0.029659
v 0.401347 2.500730 0.029659
v 0.302242 2.500730 0.029659
v 0.948520 -1.000000 0.029659
v -0.948520 -1.000000 0.029659
v -0.749630 -1.000000 0.029659
v -0.749630 1.999613 0.029659
v -0.302242 2.500730 0.029659
v -0.848735 1.999613 0.029659
v -0.401347 2.500730 0.029659
vn -0.9994 0.0332 -0.0000
vn -0.0000 -0.0000 -1.0000
vn 0.9994 0.0332 -0.0000
vn -0.0000 -0.0000 1.0000
vn -0.0000 -1.0000 -0.0000
vn 0.7460 -0.6660 -0.0000
vn -1.0000 -0.0000 -0.0000
vn 1.0000 -0.0000 -0.0000
vn -0.0000 1.0000 -0.0000
vn -0.7460 -0.6660 -0.0000
vn 0.7460 0.6660 -0.0000
vn -0.7460 0.6660 -0.0000
vt 0.375000 1.000000
vt 0.375000 0.000000
vt 0.125000 0.750000
vt 0.625000 1.000000
vt 0.625000 0.000000
vt 0.125000 0.500000
vt 0.375000 0.250000
vt 0.625000 0.250000
vt 0.375000 0.750000
vt 0.625000 0.750000
vt 0.375000 0.500000
vt 0.625000 0.500000
vt 0.375000 0.312500
vt 0.187500 0.500000
vt 0.625000 0.937500
vt 0.625000 0.312500
vt 0.812500 0.500000
vt 0.375000 0.937500
vt 0.187500 0.750000
vt 0.625000 0.437500
vt 0.312500 0.750000
vt 0.375000 0.812500
vt 0.375000 0.437500
vt 0.312500 0.500000
vt 0.625000 0.812500
vt 0.687500 0.750000
vt 0.625000 1.000000
vt 0.875000 0.750000
vt 0.625000 0.000000
vt 0.875000 0.500000
vt 0.625000 0.250000
vt 0.625000 0.750000
vt 0.625000 0.500000
vt 0.812500 0.750000
vt 0.625000 0.937500
vt 0.625000 0.312500
vt 0.812500 0.500000
vt 0.687500 0.500000
vt 0.625000 0.437500
vt 0.625000 0.812500
vt 0.687500 0.750000
vt 0.375000 0.562500
vt 0.625000 0.562500
vt 0.640625 0.515625
vt 0.312500 0.562500
vt 0.625000 0.562500
vt 0.687500 0.562500
vt 0.640625 0.515625
vt 0.625000 0.187500
vt 0.875000 0.562500
vt 0.625000 0.187500
vt 0.375000 0.187500
vt 0.125000 0.562500
vt 0.187500 0.562500
vt 0.765625 0.609375
vt 0.765625 0.609375
vt 0.812500 0.562500
vt 0.625000 0.687500
vt 0.671875 0.671875
vt 0.312500 0.687500
vt 0.625000 0.687500
vt 0.671875 0.671875
vt 0.687500 0.687500
vt 0.375000 0.687500
vt 0.125000 0.687500
vt 0.375000 0.062500
vt 0.187500 0.687500
vt 0.671875 0.828125
vt 0.812500 0.687500
vt 0.671875 0.828125
vt 0.625000 0.062500
vt 0.625000 0.062500
vt 0.875000 0.687500
s 0
usemtl insideMate
f 31/49/1 3/7/1 33/52/1
f 15/23/2 8/12/2 7/11/2
f 37/58/3 5/9/3 42/64/3
f 12/18/4 2/4/4 1/1/4
f 42/64/5 14/21/5 39/60/5
f 11/17/6 36/56/6 35/55/6
f 4/8/2 9/13/2 3/7/2
f 44/67/5 1/3/5 43/65/5
f 6/10/4 14/22/4 5/9/4
f 10/15/4 17/27/4 2/4/4
f 27/44/7 15/24/7 28/45/7
f 45/68/8 12/19/8 44/67/8
f 48/73/9 21/34/9 46/69/9
f 41/63/9 19/32/9 40/61/9
f 13/20/2 20/33/2 8/12/2
f 11/16/2 18/31/2 22/36/2
f 16/26/10 41/62/10 38/59/10
f 16/25/4 19/32/4 24/40/4
f 8/12/11 29/46/11 26/43/11
f 2/5/12 48/72/12 47/71/12
f 45/68/2 48/73/2 46/70/2
f 31/49/4 34/54/4 35/55/4
f 29/46/4 27/44/4 26/43/4
f 26/43/4 28/45/4 25/42/4
f 8/12/3 25/42/3 7/11/3
f 7/11/5 28/45/5 15/24/5
f 23/38/9 29/46/9 20/33/9
f 27/44/10 23/39/10 13/20/10
f 39/60/2 37/58/2 42/64/2
f 9/14/5 33/53/5 3/6/5
f 11/17/8 34/54/8 9/14/8
f 18/30/9 36/57/9 22/37/9
f 31/49/12 18/31/12 4/8/12
f 47/71/2 44/67/2 43/66/2
f 16/26/7 39/60/7 14/21/7
f 37/58/11 19/32/11 6/10/11
f 38/59/2 40/61/2 37/58/2
f 2/5/1 43/66/1 1/2/1
f 45/68/6 21/35/6 10/15/6
f 32/51/4 35/55/4 36/56/4
f 31/49/1 4/8/1 3/7/1
f 15/23/2 13/20/2 8/12/2
f 37/58/3 6/10/3 5/9/3
f 12/18/4 10/15/4 2/4/4
f 42/64/5 5/9/5 14/21/5
f 11/17/6 22/37/6 36/56/6
f 4/8/2 11/16/2 9/13/2
f 44/67/5 12/19/5 1/3/5
f 6/10/4 16/25/4 14/22/4
f 10/15/4 21/35/4 17/27/4
f 27/44/7 13/20/7 15/24/7
f 45/68/8 10/15/8 12/19/8
f 48/73/9 17/28/9 21/34/9
f 41/63/9 24/41/9 19/32/9
f 13/20/2 23/39/2 20/33/2
f 11/16/2 4/8/2 18/31/2
f 16/26/10 24/41/10 41/62/10
f 16/25/4 6/10/4 19/32/4
f 8/12/11 20/33/11 29/46/11
f 2/5/12 17/29/12 48/72/12
f 45/68/2 47/71/2 48/73/2
f 31/49/4 33/53/4 34/54/4
f 29/46/4 30/48/4 27/44/4
f 26/43/4 27/44/4 28/45/4
f 8/12/3 26/43/3 25/42/3
f 7/11/5 25/42/5 28/45/5
f 23/38/9 30/47/9 29/46/9
f 27/44/10 30/48/10 23/39/10
f 39/60/2 38/59/2 37/58/2
f 9/14/5 34/54/5 33/53/5
f 11/17/8 35/55/8 34/54/8
f 18/30/9 32/50/9 36/57/9
f 31/49/12 32/51/12 18/31/12
f 47/71/2 45/68/2 44/67/2
f 16/26/7 38/59/7 39/60/7
f 37/58/11 40/61/11 19/32/11
f 38/59/2 41/63/2 40/61/2
f 2/5/1 47/71/1 43/66/1
f 45/68/6 46/70/6 21/35/6
f 32/51/4 31/49/4 35/55/4
