# Blender v3.1.2 OBJ File: 'laser.blend'
# www.blender.org
mtllib 02.mtl
o funnel2_立方体.002
v 0.000000 -0.500000 -0.000369
v 0.000000 0.562389 0.299631
v -0.150000 0.500000 -0.000369
v 0.150000 0.500000 -0.000369
vt 0.375000 0.000000
vt 0.625000 0.250000
vt 0.375000 0.250000
vt 0.625000 0.500000
vt 0.375000 0.500000
vt 0.625000 0.750000
vt 0.375000 0.750000
vt 0.125000 0.500000
vt 0.125000 0.750000
vn -0.8755 -0.1313 0.4651
vn 0.0000 0.9791 -0.2036
vn 0.8755 -0.1313 0.4651
vn 0.0000 0.0000 -1.0000
usemtl funnel2Mate
s off
f 1/1/1 2/2/1 3/3/1
f 3/3/2 2/4/2 4/5/2
f 4/5/3 2/6/3 1/7/3
f 3/8/4 4/5/4 1/9/4
