# Blender v3.1.2 OBJ File: 'spring.blend'
# www.blender.org
mtllib core.mtl
o topCore_立方体.008
v -0.000224 0.600000 0.804058
v -0.804058 0.600000 0.000224
v 0.804058 0.600000 -0.000224
v 0.000224 0.600000 -0.804058
v -0.002083 0.700584 -0.380545
v 0.380545 0.700584 0.002083
v -0.380545 0.700584 -0.002083
v 0.002083 0.700584 0.380545
v -0.380545 0.499416 -0.002083
v 0.002083 0.499416 0.380545
v -0.002083 0.499416 -0.380545
v 0.380545 0.499416 0.002083
vt 0.875000 0.750000
vt 0.812500 0.562500
vt 0.125000 0.500000
vt 0.625000 0.500000
vt 0.312500 0.687500
vt 0.312500 0.562500
vt 0.125000 0.750000
vt 0.687500 0.687500
vt 0.812500 0.687500
vt 0.187500 0.687500
vt 0.625000 0.750000
vt 0.875000 0.500000
vt 0.187500 0.562500
vt 0.687500 0.562500
vt 0.375000 0.500000
vt 0.375000 0.750000
vn -0.2240 0.9485 0.2240
vn 0.2240 -0.9485 -0.2240
vn 0.2262 0.9474 0.2262
vn 0.2262 -0.9474 0.2262
vn -0.2262 -0.9474 -0.2262
vn -0.7071 0.0000 -0.7071
vn 0.7071 0.0000 -0.7071
vn 0.7071 0.0000 0.7071
vn -0.7071 0.0000 0.7071
vn -0.2262 0.9474 -0.2262
vn 0.2240 0.9485 -0.2240
vn -0.2240 -0.9485 0.2240
usemtl topCore
s off
f 1/1/1 7/2/1 2/3/1
f 4/4/2 12/5/2 11/6/2
f 1/7/3 6/8/3 8/9/3
f 10/10/4 3/11/4 1/7/4
f 2/12/5 11/6/5 9/13/5
f 10/10/6 6/8/6 12/5/6
f 8/9/7 9/13/7 7/2/7
f 5/14/8 9/13/8 11/6/8
f 11/6/9 6/8/9 5/14/9
f 7/2/10 4/15/10 2/12/10
f 4/4/11 6/8/11 3/16/11
f 1/1/12 9/13/12 10/10/12
f 1/1/1 8/9/1 7/2/1
f 4/4/2 3/16/2 12/5/2
f 1/7/3 3/11/3 6/8/3
f 10/10/4 12/5/4 3/11/4
f 2/12/5 4/15/5 11/6/5
f 10/10/6 8/9/6 6/8/6
f 8/9/7 10/10/7 9/13/7
f 5/14/8 7/2/8 9/13/8
f 11/6/9 12/5/9 6/8/9
f 7/2/10 5/14/10 4/15/10
f 4/4/11 5/14/11 6/8/11
f 1/1/12 2/3/12 9/13/12
