# Blender v3.1.2 OBJ File: 'goal.blend'
# www.blender.org
mtllib outsideCore.mtl
o outsideCore_outside.001
v -2.202214 0.000000 0.000000
v 0.000000 2.202214 0.000000
v 0.000000 -2.202214 0.000000
v 2.202214 0.000000 0.000000
v 0.000000 1.807383 -0.100422
v 0.000000 1.807383 0.100422
v -1.807383 0.000000 0.100422
v -1.807383 0.000000 -0.100422
v 1.807383 0.000000 0.100422
v 1.807383 0.000000 -0.100422
v 0.000000 -1.807383 -0.100422
v 0.000000 -1.807383 0.100422
vt 0.138268 0.621931
vt 0.200252 0.920752
vt 0.138268 0.950177
vt 0.798841 0.079280
vt 0.727803 0.367578
vt 0.727803 0.079280
vt 0.854466 0.367578
vt 0.854466 0.079280
vt 0.656765 0.079280
vt 0.727803 0.367578
vt 0.656765 0.367578
vt 0.910091 0.367578
vt 0.854466 0.079280
vt 0.910091 0.079280
vt 0.200252 0.651357
vt 0.262236 0.950177
vt 0.200252 0.920752
vt 0.608613 0.650326
vt 0.687773 0.949147
vt 0.608613 0.919721
vt 0.324220 0.920752
vt 0.262236 0.621931
vt 0.324220 0.651357
vt 0.445213 0.620724
vt 0.366054 0.919545
vt 0.366054 0.650150
vt 0.529454 0.919721
vt 0.608613 0.620901
vt 0.608613 0.949147
vt 0.450295 0.650326
vt 0.529454 0.949147
vt 0.450295 0.919721
vt 0.076284 0.920752
vt 0.076284 0.651357
vt 0.200252 0.651357
vt 0.798841 0.367578
vt 0.798841 0.367578
vt 0.727803 0.079280
vt 0.854466 0.367578
vt 0.687773 0.620901
vt 0.445213 0.948970
vt 0.529454 0.650326
vt 0.529454 0.620901
vn -0.2393 -0.2393 0.9410
vn 0.7071 0.7071 0.0000
vn -0.7071 0.7071 0.0000
vn -0.7071 -0.7071 0.0000
vn 0.7071 -0.7071 0.0000
vn 0.2393 0.2393 -0.9410
vn 0.2393 -0.2393 -0.9410
vn 0.2393 0.2393 0.9410
vn -0.2393 0.2393 0.9410
vn -0.2393 0.2393 -0.9410
vn 0.2393 -0.2393 0.9410
vn -0.2393 -0.2393 -0.9410
usemtl outsideCoreMate
s off
f 3/1/1 7/2/1 1/3/1
f 11/4/2 7/5/2 12/6/2
f 9/7/3 11/4/3 12/8/3
f 6/9/4 10/10/4 9/11/4
f 5/12/5 7/13/5 8/14/5
f 5/15/6 4/16/6 10/17/6
f 10/18/7 3/19/7 11/20/7
f 9/21/8 2/22/8 6/23/8
f 2/24/9 7/25/9 6/26/9
f 5/27/10 1/28/10 2/29/10
f 12/30/11 4/31/11 9/32/11
f 3/1/12 8/33/12 11/34/12
f 3/1/1 12/35/1 7/2/1
f 11/4/2 8/36/2 7/5/2
f 9/7/3 10/37/3 11/4/3
f 6/9/4 5/38/4 10/10/4
f 5/12/5 6/39/5 7/13/5
f 5/15/6 2/22/6 4/16/6
f 10/18/7 4/40/7 3/19/7
f 9/21/8 4/16/8 2/22/8
f 2/24/9 1/41/9 7/25/9
f 5/27/10 8/42/10 1/28/10
f 12/30/11 3/43/11 4/31/11
f 3/1/12 1/3/12 8/33/12
