# Blender v3.1.2 OBJ File: 'needle.blend'
# www.blender.org
mtllib needle.mtl
o 立方体
v -0.000000 0.000000 -0.999334
v 0.000000 0.000000 0.999334
v 0.499552 0.000000 -0.500099
v -0.000000 0.499552 -0.500099
v -0.000000 -0.499552 -0.500099
v -0.499552 0.000000 -0.500099
vt 0.251923 0.520440
vt 0.503846 0.578206
vt 0.344774 0.693720
vt 0.503846 0.173280
vt 0.755770 0.115513
vt 0.755770 0.693719
vt 0.596697 0.000000
vt 1.000000 0.169130
vt 1.000000 0.564035
vt 0.755770 0.253710
vt 0.000000 0.173280
vt 0.251923 0.115513
vt 0.251923 0.693720
vt 0.092851 0.000000
vt 0.503846 0.000000
vt 0.804667 0.000000
vn -0.5772 -0.5772 -0.5776
vn -0.6883 0.6883 0.2293
vn -0.5772 0.5772 -0.5776
vn 0.6883 -0.6883 0.2293
vn 0.6883 0.6883 0.2293
vn 0.5772 0.5772 -0.5776
vn -0.6883 -0.6883 0.2293
vn 0.5772 -0.5772 -0.5776
usemtl needleMate
s off
f 5/1/1 6/2/1 1/3/1
f 4/4/2 6/5/2 2/6/2
f 6/5/3 4/4/3 1/7/3
f 3/8/4 2/9/4 5/10/4
f 3/11/5 4/12/5 2/13/5
f 4/12/6 3/11/6 1/14/6
f 2/15/7 6/2/7 5/1/7
f 3/8/8 5/10/8 1/16/8
