# Blender v3.1.2 OBJ File: 'switch.blend'
# www.blender.org
mtllib core.mtl
o baseOffCore_立方体.002
v -0.602384 0.013577 0.282863
v -0.510364 0.363892 0.141565
v -0.602384 0.013577 -0.282332
v -0.510364 0.363892 -0.141033
v -0.733299 0.013577 -0.070703
v -0.733299 0.013577 0.072269
v -0.591784 0.216560 0.072761
v -0.591784 0.216560 -0.070827
v -0.266356 0.218074 0.196089
v -0.347650 0.363892 0.141565
v -0.347650 0.363892 -0.141033
v -0.266356 0.218074 -0.197347
v -0.266356 0.217317 -0.070703
v -0.266356 0.218074 0.071776
v -0.337745 0.013577 -0.282332
v -0.337745 0.013577 0.282863
v -0.336216 0.115826 -0.239839
v -0.336216 0.115826 0.239476
vt 0.375000 0.437500
vt 0.625000 0.500000
vt 0.375000 0.500000
vt 0.375000 0.250000
vt 0.625000 0.312500
vt 0.375000 0.312500
vt 0.625000 0.406250
vt 0.375000 0.343750
vt 0.625000 0.343750
vt 0.375000 0.406250
vt 0.625000 0.437500
vt 0.812500 0.583333
vt 0.625000 0.250000
vt 0.812500 0.541667
vt 0.718750 0.500000
vt 0.687500 0.583333
vt 0.687500 0.541667
vt 0.625000 0.583333
vt 0.875000 0.541667
vt 0.875000 0.583333
vt 0.375000 0.562500
vt 0.187500 0.375000
vt 0.312500 0.500000
vt 0.125000 0.500000
vt 0.500000 0.208333
vt 0.687500 0.500000
vt 0.500000 0.583333
vt 0.437500 0.333333
vt 0.281250 0.500000
vt 0.781250 0.500000
vt 0.625000 0.166667
vt 0.625000 0.541667
vt 0.500000 0.645833
vn -0.7797 0.3993 -0.4823
vn -0.7785 0.3997 0.4839
vn -0.8203 0.5719 0.0000
vn -0.7959 0.5550 0.2417
vn -0.7946 0.5546 -0.2472
vn 0.0000 0.4317 -0.9020
vn -0.0023 1.0000 -0.0053
vn 0.8739 0.4861 0.0029
vn 0.8734 0.4869 0.0000
vn 0.0000 -1.0000 0.0000
vn 0.0000 0.3906 0.9206
vn -0.0013 0.4308 0.9025
vn 0.0048 0.3730 -0.9278
vn 0.9999 -0.0149 0.0000
vn 0.8237 -0.5670 0.0000
vn -0.0047 0.4253 -0.9051
vn -0.0047 1.0000 0.0000
vn 0.0377 0.3684 0.9289
vn 0.0000 0.3671 0.9302
vn 0.0083 0.3722 0.9281
vn 0.0000 0.4326 0.9016
vn 0.0000 0.3700 -0.9290
vn 0.0220 0.3708 -0.9284
vn -0.0000 0.3838 -0.9234
vn 0.8263 -0.5632 -0.0034
vn 0.8279 -0.5608 0.0030
vn 0.8257 -0.5641 0.0000
usemtl baseOffCore
s off
f 5/1/1 4/2/1 3/3/1
f 1/4/2 2/5/2 6/6/2
f 8/7/3 6/8/3 7/9/3
f 5/10/4 8/7/4 4/11/4
f 6/6/5 2/5/5 7/9/5
f 14/12/6 2/13/6 10/14/6
f 8/15/7 14/12/7 13/16/7
f 11/17/8 13/16/8 12/18/8
f 10/19/9 9/20/9 14/12/9
f 15/21/10 16/22/10 5/23/10
f 1/24/11 16/22/11 18/25/11
f 13/16/12 4/26/12 8/15/12
f 17/27/13 3/3/13 4/26/13
f 15/21/14 18/28/14 16/22/14
f 18/25/15 17/27/15 13/16/15
f 8/7/3 5/29/3 6/8/3
f 14/12/16 7/30/16 2/13/16
f 8/15/17 7/30/17 14/12/17
f 1/24/10 6/8/10 16/22/10
f 6/8/10 5/23/10 16/22/10
f 5/23/10 3/3/10 15/21/10
f 18/25/18 9/31/18 10/14/18
f 10/14/19 2/13/19 18/25/19
f 2/13/20 1/24/20 18/25/20
f 13/16/21 11/32/21 4/26/21
f 4/26/22 11/32/22 17/27/22
f 11/32/23 12/18/23 17/27/23
f 17/27/24 15/21/24 3/3/24
f 15/21/14 17/33/14 18/28/14
f 17/27/25 12/18/25 13/16/25
f 13/16/26 14/12/26 18/25/26
f 14/12/27 9/31/27 18/25/27
