# Blender v3.1.2 OBJ File: 'player.blend'
# www.blender.org
mtllib player_face.mtl
o Face
v -0.861315 -0.818461 0.806743
v 0.861315 -0.818461 0.806743
v -0.861315 0.794050 0.821024
v 0.861315 0.794050 0.821024
v -0.988434 -0.010406 0.898131
v 0.988434 -0.010406 0.898131
v 0.000000 -0.878753 0.897647
v 0.000000 0.865516 0.911928
v 0.000000 -0.010406 0.989035
v 0.988434 0.502577 0.859661
v -0.988434 0.502577 0.859661
v 0.000000 0.502577 0.950564
v -0.988434 -0.511730 0.852437
v 0.988434 -0.511730 0.852437
v 0.000000 -0.511730 0.943340
v 0.500000 -0.878753 0.869768
v 0.500000 0.865516 0.884049
v 0.500000 -0.010406 0.961156
v 0.500000 0.502577 0.922686
v 0.500000 -0.511730 0.915462
v -0.500000 0.865516 0.884049
v -0.500000 -0.010406 0.961156
v -0.500000 -0.878753 0.869768
v -0.500000 0.502577 0.922686
v -0.500000 -0.511730 0.915462
v -0.680658 0.829783 0.857130
v -0.744217 -0.010406 0.934237
v -0.744217 0.502577 0.895766
v -0.744217 -0.511730 0.888543
v -0.680658 -0.848607 0.842849
v -0.250000 -0.878753 0.891303
v -0.250000 0.865516 0.905584
v -0.250000 -0.010406 0.982691
v -0.250000 0.502577 0.944221
v -0.250000 -0.511730 0.936997
v 0.250000 0.865516 0.905584
v 0.250000 -0.010406 0.982691
v 0.250000 0.502577 0.944221
v 0.250000 -0.511730 0.936997
v 0.250000 -0.878753 0.891303
v 0.680658 -0.848607 0.842849
v 0.680658 0.829783 0.857130
v 0.744217 -0.010406 0.934237
v 0.744217 0.502577 0.895766
v 0.744217 -0.511730 0.888543
v -0.988434 0.246086 0.887922
v 0.988434 0.246086 0.887922
v 0.000000 0.246086 0.978826
v 0.500000 0.246086 0.950947
v -0.500000 0.246086 0.950947
v -0.744217 0.246086 0.924028
v -0.250000 0.246086 0.972482
v 0.250000 0.246086 0.972482
v 0.744217 0.246086 0.924028
v 0.988434 -0.261068 0.884310
v 0.000000 -0.261068 0.975214
v -0.988434 -0.261068 0.884310
v 0.500000 -0.261068 0.947335
v -0.500000 -0.261068 0.947335
v -0.744217 -0.261068 0.920416
v -0.250000 -0.261068 0.968871
v 0.250000 -0.261068 0.968871
v 0.744217 -0.261068 0.920416
vt 0.821023 0.689744
vt 0.925343 0.689375
vt 0.871326 0.813923
vt 0.820216 0.363568
vt 0.924536 0.363199
vt 0.924812 0.470329
vt 0.502287 0.364531
vt 0.502563 0.471660
vt 0.395752 0.471911
vt 0.503095 0.690707
vt 0.503465 0.845650
vt 0.396653 0.845900
vt 0.502834 0.581210
vt 0.396283 0.690957
vt 0.820762 0.580248
vt 0.925082 0.579879
vt 0.394774 0.100663
vt 0.501586 0.100412
vt 0.502002 0.257348
vt 0.869588 0.124976
vt 0.924250 0.256016
vt 0.819931 0.256385
vt 0.715189 0.099792
vt 0.715606 0.256728
vt 0.608808 0.257060
vt 0.609639 0.580922
vt 0.716437 0.580590
vt 0.716698 0.690086
vt 0.609093 0.364243
vt 0.715891 0.363910
vt 0.716167 0.471040
vt 0.609900 0.690419
vt 0.717068 0.845029
vt 0.210790 0.113863
vt 0.287954 0.100869
vt 0.288371 0.257804
vt 0.289202 0.581667
vt 0.289463 0.691163
vt 0.185112 0.691347
vt 0.289833 0.846106
vt 0.212598 0.830956
vt 0.288656 0.364987
vt 0.288932 0.472117
vt 0.184580 0.472301
vt 0.184304 0.365171
vt 0.080224 0.472458
vt 0.135359 0.815778
vt 0.184850 0.581850
vt 0.080755 0.691504
vt 0.133621 0.126831
vt 0.184019 0.257988
vt 0.395191 0.257598
vt 0.396022 0.581461
vt 0.395476 0.364781
vt 0.610270 0.845362
vt 0.609369 0.471372
vt 0.608391 0.100125
vt 0.792391 0.112398
vt 0.820492 0.470698
vt 0.794200 0.829490
vt 0.080494 0.582007
vt 0.079948 0.365328
vt 0.079663 0.258145
vn 0.1436 0.1913 0.9710
vn 0.1460 -0.0545 0.9878
vn -0.0253 -0.0550 0.9982
vn -0.0252 0.1058 0.9941
vn -0.0252 0.1095 0.9937
vn 0.1454 0.1084 0.9834
vn -0.0252 -0.1235 0.9920
vn 0.1432 -0.2036 0.9685
vn 0.0852 -0.1231 0.9887
vn 0.0853 0.1091 0.9904
vn 0.0857 -0.0548 0.9948
vn 0.0853 0.1055 0.9908
vn -0.1661 -0.1218 0.9785
vn -0.1089 0.1089 0.9881
vn -0.1667 0.1044 0.9805
vn -0.1094 -0.0547 0.9925
vn -0.1460 -0.0545 0.9878
vn -0.2233 0.1570 0.9620
vn -0.1454 0.1084 0.9834
vn -0.2206 -0.1718 0.9601
vn -0.0852 -0.1231 0.9887
vn -0.0853 0.1091 0.9904
vn -0.0853 0.1055 0.9908
vn -0.0857 -0.0548 0.9948
vn 0.0252 0.1058 0.9941
vn 0.0253 -0.0550 0.9982
vn 0.0252 0.1095 0.9937
vn 0.0252 -0.1235 0.9920
vn 0.1083 -0.1536 0.9822
vn 0.1089 0.1089 0.9881
vn 0.1094 -0.0547 0.9925
vn 0.1085 0.1373 0.9846
vn 0.1095 0.0395 0.9932
vn 0.0253 0.0398 0.9989
vn -0.0858 0.0396 0.9955
vn -0.1461 0.0393 0.9885
vn -0.1095 0.0395 0.9932
vn 0.0858 0.0396 0.9955
vn 0.1461 0.0393 0.9885
vn -0.0253 0.0398 0.9989
vn 0.1087 -0.1254 0.9861
vn 0.0252 -0.1261 0.9917
vn -0.0851 -0.1257 0.9884
vn -0.1451 -0.1248 0.9815
vn -0.1087 -0.1254 0.9861
vn 0.0851 -0.1257 0.9884
vn -0.0252 -0.1261 0.9917
vn 0.1451 -0.1248 0.9815
vn -0.1436 0.1913 0.9710
vn -0.1432 -0.2036 0.9685
vn 0.2233 0.1570 0.9620
vn -0.1083 -0.1536 0.9822
vn 0.2206 -0.1718 0.9601
vn 0.1661 -0.1218 0.9785
vn -0.1085 0.1373 0.9846
vn 0.1667 0.1044 0.9805
g Face_Face_FaceMaterial
usemtl FaceMaterial
s off
f 44/1/1 10/2/1 4/3/1
f 63/4/2 55/5/2 6/6/2
f 56/7/3 9/8/3 33/9/3
f 12/10/4 8/11/4 32/12/4
f 48/13/5 12/10/5 34/14/5
f 54/15/6 47/16/6 10/2/6
f 31/17/7 7/18/7 15/19/7
f 2/20/8 14/21/8 45/22/8
f 16/23/9 20/24/9 39/25/9
f 53/26/10 49/27/10 19/28/10
f 62/29/11 58/30/11 18/31/11
f 38/32/12 19/28/12 17/33/12
f 30/34/13 23/35/13 25/36/13
f 50/37/14 24/38/14 28/39/14
f 24/38/15 21/40/15 26/41/15
f 59/42/16 22/43/16 27/44/16
f 60/45/17 27/44/17 5/46/17
f 28/39/18 26/41/18 3/47/18
f 51/48/19 28/39/19 11/49/19
f 1/50/20 30/34/20 29/51/20
f 23/35/21 31/17/21 35/52/21
f 52/53/22 34/14/22 24/38/22
f 34/14/23 32/12/23 21/40/23
f 61/54/24 33/9/24 22/43/24
f 12/10/25 38/32/25 36/55/25
f 56/7/26 62/29/26 37/56/26
f 48/13/27 53/26/27 38/32/27
f 40/57/28 39/25/28 15/19/28
f 41/58/29 45/22/29 20/24/29
f 49/27/30 54/15/30 44/1/30
f 58/30/31 63/4/31 43/59/31
f 19/28/32 44/1/32 42/60/32
f 18/31/33 43/59/33 54/15/33
f 9/8/34 37/56/34 53/26/34
f 33/9/35 52/53/35 50/37/35
f 27/44/36 51/48/36 46/61/36
f 22/43/37 50/37/37 51/48/37
f 37/56/38 18/31/38 49/27/38
f 43/59/39 6/6/39 47/16/39
f 9/8/40 48/13/40 52/53/40
f 20/24/41 45/22/41 63/4/41 58/30/41
f 15/19/42 39/25/42 62/29/42
f 35/52/43 61/54/43 59/42/43
f 29/51/44 60/45/44 57/62/44
f 25/36/45 59/42/45 60/45/45
f 39/25/46 20/24/46 58/30/46
f 15/19/47 56/7/47 61/54/47
f 45/22/48 14/21/48 55/5/48
f 11/49/49 28/39/49 3/47/49
f 13/63/50 1/50/50 29/51/50
f 42/60/51 44/1/51 4/3/51
f 51/48/14 50/37/14 28/39/14
f 22/43/35 33/9/35 50/37/35
f 61/54/3 56/7/3 33/9/3
f 46/61/19 51/48/19 11/49/19
f 27/44/37 22/43/37 51/48/37
f 59/42/24 61/54/24 22/43/24
f 35/52/47 15/19/47 61/54/47
f 5/46/36 27/44/36 46/61/36
f 60/45/16 59/42/16 27/44/16
f 25/36/43 35/52/43 59/42/43
f 57/62/17 60/45/17 5/46/17
f 29/51/45 25/36/45 60/45/45
f 13/63/44 29/51/44 57/62/44
f 29/51/52 30/34/52 25/36/52
f 41/58/53 2/20/53 45/22/53
f 25/36/21 23/35/21 35/52/21
f 35/52/7 31/17/7 15/19/7
f 7/18/28 40/57/28 15/19/28
f 40/57/9 16/23/9 39/25/9
f 16/23/54 41/58/54 20/24/54
f 28/39/55 24/38/55 26/41/55
f 17/33/56 19/28/56 42/60/56
f 36/55/12 38/32/12 17/33/12
f 24/38/23 34/14/23 21/40/23
f 34/14/4 12/10/4 32/12/4
f 8/11/25 12/10/25 36/55/25
f 50/37/22 52/53/22 24/38/22
f 33/9/40 9/8/40 52/53/40
f 52/53/5 48/13/5 34/14/5
f 12/10/27 48/13/27 38/32/27
f 38/32/10 53/26/10 19/28/10
f 48/13/34 9/8/34 53/26/34
f 19/28/30 49/27/30 44/1/30
f 44/1/6 54/15/6 10/2/6
f 54/15/39 43/59/39 47/16/39
f 43/59/2 63/4/2 6/6/2
f 63/4/48 45/22/48 55/5/48
f 53/26/38 37/56/38 49/27/38
f 49/27/33 18/31/33 54/15/33
f 18/31/31 58/30/31 43/59/31
f 37/56/11 62/29/11 18/31/11
f 9/8/26 56/7/26 37/56/26
f 56/7/42 15/19/42 62/29/42
f 62/29/46 39/25/46 58/30/46
