# Blender v3.1.2 OBJ File: ''
# www.blender.org
mtllib core.mtl
o ringCore_立方体.002
v 0.014029 -0.440930 0.000000
v -0.339525 -0.087377 -0.000000
v 0.367582 -0.087377 0.000000
v 0.014029 0.266176 0.000000
v 0.190805 -0.087377 0.051578
v 0.014029 -0.264154 0.051578
v 0.014029 0.089400 0.051578
v -0.162748 -0.087377 0.051578
v 0.014029 -0.264154 -0.051578
v 0.190805 -0.087377 -0.051578
v -0.162748 -0.087377 -0.051578
v 0.014029 0.089400 -0.051578
vt 0.562500 0.187500
vt 0.625000 0.750000
vt 0.625000 0.250000
vt 0.437500 0.062500
vt 0.375000 0.500000
vt 0.375000 0.000000
vt 0.437500 0.187500
vt 0.625000 0.500000
vt 0.375000 0.250000
vt 0.562500 0.062500
vt 0.375000 0.750000
vt 0.625000 0.000000
vt 0.562500 0.687500
vt 0.562500 0.562500
vt 0.437500 0.687500
vt 0.437500 0.562500
vn -0.2697 0.2697 -0.9244
vn 0.2697 -0.2697 -0.9244
vn 0.2697 0.2697 -0.9244
vn -0.2697 -0.2697 -0.9244
vn 0.7071 -0.7071 0.0000
vn -0.2697 -0.2697 0.9244
vn 0.2697 0.2697 0.9244
vn -0.2697 0.2697 0.9244
vn 0.2697 -0.2697 0.9244
vn -0.7071 -0.7071 0.0000
vn 0.7071 0.7071 0.0000
vn -0.7071 0.7071 0.0000
usemtl ringCoreMate
s off
f 12/1/1 2/2/1 4/3/1
f 9/4/2 3/5/2 1/6/2
f 10/7/3 4/8/3 3/9/3
f 11/10/4 1/11/4 2/12/4
f 8/13/5 12/1/5 7/14/5
f 2/12/6 6/15/6 8/13/6
f 3/9/7 7/14/7 5/16/7
f 4/3/8 8/13/8 7/14/8
f 1/6/9 5/16/9 6/15/9
f 5/16/10 12/1/10 10/7/10
f 11/10/11 6/15/11 9/4/11
f 10/7/12 6/15/12 5/16/12
f 12/1/1 11/10/1 2/2/1
f 9/4/2 10/7/2 3/5/2
f 10/7/3 12/1/3 4/8/3
f 11/10/4 9/4/4 1/11/4
f 8/13/5 11/10/5 12/1/5
f 2/12/6 1/11/6 6/15/6
f 3/9/7 4/8/7 7/14/7
f 4/3/8 2/2/8 8/13/8
f 1/6/9 3/5/9 5/16/9
f 5/16/10 7/14/10 12/1/10
f 11/10/11 8/13/11 6/15/11
f 10/7/12 9/4/12 6/15/12
