# Blender v3.1.2 OBJ File: 'goal.blend'
# www.blender.org
mtllib outside.mtl
o outside
v -2.300896 -0.099699 0.000000
v 1.904752 -0.100007 0.100422
v -0.098682 -2.301913 0.000000
v 2.299583 -0.100007 0.000000
v 0.097369 -2.302221 0.000000
v -1.906065 -0.099699 0.100422
v -1.906065 -0.099699 -0.100422
v -0.098682 -1.907082 -0.100422
v -0.098682 -1.907082 0.100422
v -2.302001 0.098750 0.000000
v -0.099787 2.300964 0.000000
v -0.099787 1.906133 -0.100422
v -0.099787 1.906133 0.100422
v -1.907170 0.098750 0.100422
v -1.907170 0.098750 -0.100422
v 0.099435 2.299583 0.000000
v 2.301650 0.097369 0.000000
v 0.099435 1.904752 -0.100422
v 0.099435 1.904752 0.100422
v 1.906818 0.097369 0.100422
v 1.906818 0.097369 -0.100422
v 1.904752 -0.100007 -0.100422
v 0.097369 -1.907390 -0.100422
v 0.097369 -1.907390 0.100422
vt 0.138268 0.621931
vt 0.200252 0.920752
vt 0.138268 0.950177
vt 0.450295 0.650326
vt 0.529454 0.620901
vt 0.529454 0.949147
vt 0.608613 0.650326
vt 0.687773 0.620901
vt 0.687773 0.949147
vt 0.076284 0.920752
vt 0.076284 0.651357
vt 0.200252 0.651357
vt 0.450295 0.919721
vt 0.608613 0.919721
vt 0.445213 0.620724
vt 0.366054 0.919545
vt 0.366054 0.650150
vt 0.529454 0.919721
vt 0.608613 0.620901
vt 0.608613 0.949147
vt 0.445213 0.948970
vt 0.529454 0.650326
vt 0.200252 0.651357
vt 0.262236 0.950177
vt 0.200252 0.920752
vt 0.324220 0.920752
vt 0.262236 0.621931
vt 0.324220 0.651357
vn -0.2393 -0.2393 0.9410
vn 0.2393 -0.2393 0.9410
vn 0.2393 -0.2393 -0.9410
vn -0.2393 -0.2393 -0.9410
vn -0.2393 0.2393 0.9410
vn -0.2393 0.2393 -0.9410
vn 0.2393 0.2393 -0.9410
vn 0.2393 0.2393 0.9410
usemtl outsideMate
s off
f 3/1/1 6/2/1 1/3/1
f 24/4/2 5/5/2 4/6/2
f 22/7/3 4/8/3 5/9/3
f 3/1/4 7/10/4 8/11/4
f 3/1/1 9/12/1 6/2/1
f 24/4/2 4/6/2 2/13/2
f 22/7/3 5/9/3 23/14/3
f 3/1/4 1/3/4 7/10/4
f 11/15/5 14/16/5 13/17/5
f 12/18/6 10/19/6 11/20/6
f 11/15/5 10/21/5 14/16/5
f 12/18/6 15/22/6 10/19/6
f 18/23/7 17/24/7 21/25/7
f 20/26/8 16/27/8 19/28/8
f 18/23/7 16/27/7 17/24/7
f 20/26/8 17/24/8 16/27/8
