# Blender v3.1.2 OBJ File: 'slime.blend'
# www.blender.org
mtllib slime.mtl
o Cube
v 0.592037 0.791130 -0.466686
v 0.862838 -0.995587 -0.881236
v 0.592037 0.791130 0.466686
v 0.862838 -0.995587 0.881236
v -0.592037 0.791130 -0.466686
v -0.862838 -0.995587 -0.881236
v -0.592037 0.791130 0.466686
v -0.862838 -0.995587 0.881236
v 0.916104 0.004413 -0.816658
v -0.916104 0.004413 0.816658
v 0.916104 0.004413 0.816658
v -0.916104 0.004413 -0.816658
v -0.812937 0.504413 0.657806
v 0.812937 0.504413 -0.657806
v 0.812937 0.504413 0.657806
v -0.812937 0.504413 -0.657806
v 0.959878 -0.495587 -0.918429
v 0.959878 -0.495587 0.918429
v -0.959878 -0.495587 -0.918429
v -0.959878 -0.495587 0.918429
v 0.000000 -0.995587 -0.881236
v 0.000000 0.791130 0.466686
v 0.000000 -0.995587 0.881236
v 0.000000 0.791130 -0.466686
v 0.000000 0.004413 -0.816658
v 0.000000 0.004413 0.816658
v 0.000000 0.504413 -0.657806
v 0.000000 0.504413 0.657806
v 0.000000 -0.495587 0.918429
v 0.000000 -0.495587 -0.918429
v 0.431419 -0.995587 0.881236
v 0.296019 0.791130 -0.466686
v 0.458052 0.004413 -0.816658
v 0.406469 0.504413 -0.657806
v 0.479939 -0.495587 -0.918429
v 0.431419 -0.995587 -0.881236
v 0.296019 0.791130 0.466686
v 0.458052 0.004413 0.816658
v 0.406469 0.504413 0.657806
v 0.479939 -0.495587 0.918429
v -0.431419 -0.995587 -0.881236
v -0.296019 0.791130 0.466686
v -0.458052 0.004413 0.816658
v -0.406469 0.504413 0.657806
v -0.479939 -0.495587 0.918429
v -0.431419 -0.995587 0.881236
v -0.296019 0.791130 -0.466686
v -0.458052 0.004413 -0.816658
v -0.406469 0.504413 -0.657806
v -0.479939 -0.495587 -0.918429
v 0.215710 -0.995587 -0.881236
v 0.148009 0.791130 0.466686
v 0.229026 0.004413 0.816658
v 0.203234 0.504413 0.657806
v 0.239970 -0.495587 0.918429
v 0.215710 -0.995587 0.881236
v 0.148009 0.791130 -0.466686
v 0.229026 0.004413 -0.816658
v 0.203234 0.504413 -0.657806
v 0.239970 -0.495587 -0.918429
v -0.215710 -0.995587 0.881236
v -0.148009 0.791130 -0.466686
v -0.229026 0.004413 -0.816658
v -0.203234 0.504413 -0.657806
v -0.239970 -0.495587 -0.918429
v -0.215710 -0.995587 -0.881236
v -0.148009 0.791130 0.466686
v -0.229026 0.004413 0.816658
v -0.203234 0.504413 0.657806
v -0.239970 -0.495587 0.918429
v 0.443189 0.007776 0.945160
v 0.458130 -0.436270 1.037007
v -0.443189 0.007776 0.945160
v -0.458130 -0.436270 1.037007
v 0.245876 0.008893 0.952865
v 0.255258 -0.441940 1.036083
v -0.245876 0.008893 0.952865
v -0.255258 -0.441940 1.036083
v 0.323564 -0.995587 0.881236
v 0.222014 0.791130 -0.466686
v 0.343539 0.004413 -0.816658
v 0.304851 0.504413 -0.657806
v 0.359954 -0.495587 -0.918429
v 0.323564 -0.995587 -0.881236
v 0.222014 0.791130 0.466686
v 0.343539 0.004413 0.816658
v 0.304851 0.504413 0.657806
v 0.359954 -0.495587 0.918429
v 0.343539 0.034879 0.966337
v 0.359954 -0.454032 1.044872
v -0.323564 -0.995587 -0.881236
v -0.222014 0.791130 0.466686
v -0.343539 0.004413 0.816658
v -0.304851 0.504413 0.657806
v -0.359954 -0.495587 0.918429
v -0.323564 -0.995587 0.881236
v -0.222014 0.791130 -0.466686
v -0.343539 0.004413 -0.816658
v -0.304851 0.504413 -0.657806
v -0.359954 -0.495587 -0.918429
v -0.343539 0.034879 0.966337
v -0.359954 -0.454032 1.044872
v -0.937991 -0.245587 0.867544
v 0.937991 -0.245587 -0.867544
v 0.937991 -0.245587 0.867544
v -0.937991 -0.245587 -0.867544
v 0.000000 -0.245587 0.867544
v 0.000000 -0.245587 -0.867544
v 0.468996 -0.245587 0.867544
v 0.468996 -0.245587 -0.867544
v -0.468996 -0.245587 -0.867544
v -0.468996 -0.245587 0.867544
v 0.234498 -0.245587 -0.867544
v 0.234498 -0.245587 0.867544
v -0.234498 -0.245587 0.867544
v -0.234498 -0.245587 -0.867544
v 0.468996 -0.215121 1.017222
v -0.468996 -0.215121 1.017222
v 0.234498 -0.215121 1.017222
v -0.234498 -0.215121 1.017222
v 0.351747 -0.215121 1.017222
v 0.351747 -0.245587 -0.867544
v -0.351747 -0.215121 1.017222
v -0.351747 -0.245587 -0.867544
vt 0.907021 0.571859
vt 0.907021 0.610996
vt 0.875767 0.610996
vt 0.875767 0.571859
vt 0.803599 0.635095
vt 0.814451 0.620492
vt 0.814451 0.659629
vt 0.803599 0.688835
vt 0.863428 0.742240
vt 0.873279 0.766632
vt 0.873279 0.889976
vt 0.863428 0.916097
vt 0.916649 0.708263
vt 0.931105 0.708263
vt 0.931105 0.939379
vt 0.916649 0.939379
vt 0.803284 0.743167
vt 0.813136 0.769288
vt 0.813136 0.892632
vt 0.803284 0.917023
vt 0.865266 0.635095
vt 0.875767 0.620492
vt 0.875767 0.659629
vt 0.865266 0.688835
vt 0.839338 0.643362
vt 0.847879 0.641915
vt 0.847879 0.702475
vt 0.839338 0.705369
vt 0.778025 0.715042
vt 0.786423 0.721822
vt 0.786423 0.937662
vt 0.778025 0.944332
vt 0.838169 0.714932
vt 0.846566 0.721601
vt 0.846566 0.937442
vt 0.838169 0.944221
vt 0.777518 0.643362
vt 0.786060 0.641915
vt 0.786060 0.702475
vt 0.777518 0.705369
vt 0.752992 0.638394
vt 0.768975 0.644809
vt 0.768975 0.708262
vt 0.752992 0.695433
vt 0.813136 0.712712
vt 0.829771 0.708263
vt 0.829771 0.951001
vt 0.813136 0.945620
vt 0.752992 0.713644
vt 0.769628 0.708262
vt 0.769628 0.951001
vt 0.752992 0.946552
vt 0.814451 0.638394
vt 0.830796 0.644809
vt 0.830796 0.708262
vt 0.814451 0.695433
vt 0.814451 0.552835
vt 0.830796 0.549628
vt 0.830796 0.581355
vt 0.814451 0.581355
vt 0.752992 0.552835
vt 0.768975 0.549628
vt 0.768975 0.581355
vt 0.752992 0.581355
vt 0.786060 0.551075
vt 0.803599 0.554485
vt 0.803599 0.581355
vt 0.786060 0.581355
vt 0.847879 0.551075
vt 0.865266 0.554485
vt 0.865266 0.581355
vt 0.847879 0.581355
vt 0.777518 0.550351
vt 0.777518 0.581355
vt 0.839338 0.550351
vt 0.839338 0.581355
vt 0.875767 0.561786
vt 0.875767 0.581355
vt 0.894964 0.708263
vt 0.902192 0.708263
vt 0.902192 0.939379
vt 0.894964 0.939379
vt 0.814451 0.561786
vt 0.814451 0.581355
vt 0.907021 0.513153
vt 0.907021 0.532722
vt 0.875767 0.532722
vt 0.875767 0.513153
vt 0.907021 0.454447
vt 0.907021 0.493585
vt 0.875767 0.493585
vt 0.875767 0.454447
vt 0.803599 0.473875
vt 0.814451 0.503080
vt 0.814451 0.542218
vt 0.803599 0.527615
vt 0.777518 0.457341
vt 0.786060 0.460235
vt 0.786060 0.520795
vt 0.777518 0.519348
vt 0.752992 0.467277
vt 0.768975 0.454447
vt 0.768975 0.517901
vt 0.752992 0.524316
vt 0.814451 0.624134
vt 0.830796 0.628945
vt 0.847879 0.626775
vt 0.865266 0.621660
vt 0.839338 0.627860
vt 0.875767 0.610708
vt 0.913035 0.708263
vt 0.913035 0.939379
vt 0.873279 0.708263
vt 0.887736 0.708263
vt 0.887736 0.939379
vt 0.873279 0.939379
vt 0.865266 0.473875
vt 0.875767 0.503080
vt 0.875767 0.542218
vt 0.865266 0.527615
vt 0.839338 0.457341
vt 0.847879 0.460235
vt 0.847879 0.520795
vt 0.839338 0.519348
vt 0.814451 0.467277
vt 0.830796 0.454447
vt 0.830796 0.517901
vt 0.814451 0.524316
vt 0.752992 0.624134
vt 0.768975 0.628945
vt 0.786060 0.626775
vt 0.803599 0.621660
vt 0.235522 0.935267
vt 0.235522 0.983220
vt 0.210147 0.978976
vt 0.206805 0.935215
vt 0.814451 0.610708
vt 0.907021 0.562075
vt 0.875767 0.562075
vt 0.909420 0.708263
vt 0.909420 0.939379
vt 0.875767 0.600924
vt 0.865266 0.608225
vt 0.847879 0.611635
vt 0.839338 0.612358
vt 0.830796 0.613082
vt 0.814451 0.609874
vt 0.907021 0.503369
vt 0.875767 0.503369
vt 0.803599 0.541050
vt 0.814451 0.552002
vt 0.149370 0.935349
vt 0.149370 0.983386
vt 0.125459 0.979274
vt 0.120652 0.935366
vt 0.786060 0.535935
vt 0.752992 0.538576
vt 0.768975 0.533764
vt 0.907021 0.552290
vt 0.875767 0.552290
vt 0.814451 0.600924
vt 0.803599 0.608225
vt 0.786060 0.611635
vt 0.777518 0.612358
vt 0.768975 0.613082
vt 0.752992 0.609874
vt 0.891350 0.708263
vt 0.891350 0.939379
vt 0.865266 0.541050
vt 0.875767 0.552002
vt 0.839338 0.534850
vt 0.847879 0.535935
vt 0.814451 0.538576
vt 0.830796 0.533765
vt 0.341141 0.898478
vt 0.338268 0.946379
vt 0.319969 0.940663
vt 0.319176 0.896450
vt 0.297210 0.901527
vt 0.294338 0.853625
vt 0.313015 0.856068
vt 0.319176 0.899499
vt 0.178087 0.935349
vt 0.178087 0.983386
vt 0.153876 0.976778
vt 0.149370 0.935332
vt 0.206805 0.935266
vt 0.206805 0.983220
vt 0.183007 0.977712
vt 0.178087 0.935318
vt 0.059747 0.961581
vt 0.059747 0.984155
vt 0.036506 0.981278
vt 0.035156 0.961581
vt 0.084339 0.961581
vt 0.084339 0.984155
vt 0.060789 0.980052
vt 0.059747 0.961581
vt 0.331961 0.967923
vt 0.331961 0.989467
vt 0.307779 0.986671
vt 0.303603 0.967923
vt 0.303603 0.967923
vt 0.303603 0.989467
vt 0.277964 0.986297
vt 0.275245 0.967923
vt 0.303603 0.946379
vt 0.279421 0.949176
vt 0.084339 0.939008
vt 0.061097 0.941884
vt 0.275245 0.903555
vt 0.276038 0.859342
vt 0.331961 0.946379
vt 0.306322 0.949549
vt 0.059747 0.939008
vt 0.036197 0.943111
vt 0.363106 0.900506
vt 0.356946 0.943937
vt 0.363106 0.858027
vt 0.343732 0.853625
vt 0.281078 0.944496
vt 0.299801 0.946379
vt 0.206805 0.887313
vt 0.181429 0.891557
vt 0.178087 0.887313
vt 0.154177 0.891424
vt 0.319176 0.941977
vt 0.325009 0.855509
vt 0.149370 0.887313
vt 0.125158 0.893921
vt 0.235522 0.887313
vt 0.211724 0.892821
vn 0.0000 1.0000 0.0000
vn 0.0000 0.5547 0.8321
vn -0.7922 0.6103 0.0000
vn 0.0000 -1.0000 0.0000
vn 0.7922 0.6103 0.0000
vn 0.0000 0.5547 -0.8321
vn 0.0000 0.1995 -0.9799
vn 0.9962 0.0872 0.0000
vn -0.9962 0.0872 0.0000
vn 0.0000 0.1995 0.9799
vn 0.0000 0.3028 -0.9531
vn 0.9794 0.2021 0.0000
vn -0.9794 0.2021 0.0000
vn 0.0000 0.3028 0.9531
vn 0.0000 -0.0742 0.9972
vn -0.9817 -0.1905 0.0000
vn 0.9817 -0.1905 0.0000
vn 0.0000 -0.0742 -0.9972
vn 0.9981 0.0260 0.0557
vn 0.9952 0.0884 0.0424
vn -0.1258 0.2581 0.9579
vn -0.0892 0.2359 0.9677
vn -0.9970 0.0117 0.0771
vn -0.9965 -0.0444 0.0710
vn 0.0643 -0.9284 0.3661
vn 0.0887 -0.9183 0.3859
vn -0.1136 0.9870 -0.1140
vn -0.1136 0.9870 -0.1139
vn 0.1136 0.9870 -0.1140
vn -0.0643 -0.9284 0.3661
vn 0.1258 0.2581 0.9579
vn 0.1136 0.9870 -0.1139
vn -0.0887 -0.9183 0.3859
vn 0.0892 0.2359 0.9677
vn 0.0341 0.0972 0.9947
vn 0.0279 0.1024 0.9944
vn -0.9981 0.0260 0.0557
vn -0.9952 0.0884 0.0424
vn -0.0341 0.0972 0.9947
vn -0.0279 0.1024 0.9944
vn 0.9970 0.0117 0.0771
vn 0.9965 -0.0444 0.0710
g Cube_Cube_body
usemtl body
s off
f 47/1/1 5/2/1 7/3/1 42/4/1
f 44/5/2 42/6/2 7/7/2 13/8/2
f 13/9/3 7/10/3 5/11/3 16/12/3
f 36/13/4 2/14/4 4/15/4 31/16/4
f 14/17/5 1/18/5 3/19/5 15/20/5
f 34/21/6 32/22/6 1/23/6 14/24/6
f 110/25/7 33/26/7 9/27/7 104/28/7
f 104/29/8 9/30/8 11/31/8 105/32/8
f 103/33/9 10/34/9 12/35/9 106/36/9
f 112/37/10 43/38/10 10/39/10 103/40/10
f 33/26/11 34/21/11 14/24/11 9/27/11
f 9/30/12 14/17/12 15/20/12 11/31/12
f 10/34/13 13/9/13 16/12/13 12/35/13
f 43/38/14 44/5/14 13/8/14 10/39/14
f 46/41/15 45/42/15 20/43/15 8/44/15
f 8/45/16 20/46/16 19/47/16 6/48/16
f 2/49/17 17/50/17 18/51/17 4/52/17
f 36/53/18 35/54/18 17/55/18 2/56/18
f 66/57/18 65/58/18 30/59/18 21/60/18
f 56/61/15 55/62/15 29/63/15 23/64/15
f 53/65/14 54/66/14 28/67/14 26/68/14
f 63/69/11 64/70/11 27/71/11 25/72/11
f 114/73/10 53/65/10 26/68/10 107/74/10
f 116/75/7 63/69/7 25/72/7 108/76/7
f 64/70/6 62/77/6 24/78/6 27/71/6
f 66/79/4 21/80/4 23/81/4 61/82/4
f 54/66/2 52/83/2 22/84/2 28/67/2
f 57/85/1 24/86/1 22/87/1 52/88/1
f 1/89/1 32/90/1 37/91/1 3/92/1
f 15/93/2 3/94/2 37/95/2 39/96/2
f 105/97/10 11/98/10 38/99/10 109/100/10
f 11/98/14 15/93/14 39/96/14 38/99/14
f 4/101/15 18/102/15 40/103/15 31/104/15
f 84/105/18 83/106/18 35/54/18 36/53/18
f 81/107/11 82/108/11 34/21/11 33/26/11
f 122/109/7 81/107/7 33/26/7 110/25/7
f 82/108/6 80/110/6 32/22/6 34/21/6
f 84/111/4 36/13/4 31/16/4 79/112/4
f 6/113/4 41/114/4 46/115/4 8/116/4
f 16/117/6 5/118/6 47/119/6 49/120/6
f 106/121/7 12/122/7 48/123/7 111/124/7
f 12/122/11 16/117/11 49/120/11 48/123/11
f 6/125/18 19/126/18 50/127/18 41/128/18
f 96/129/15 95/130/15 45/42/15 46/41/15
f 93/131/14 94/132/14 44/5/14 43/38/14
f 115/133/19 68/134/19 77/135/19 120/136/19
f 94/132/2 92/137/2 42/6/2 44/5/2
f 97/138/1 47/1/1 42/4/1 92/139/1
f 21/80/4 51/140/4 56/141/4 23/81/4
f 27/71/6 24/78/6 57/142/6 59/143/6
f 108/76/7 25/72/7 58/144/7 113/145/7
f 25/72/11 27/71/11 59/143/11 58/144/11
f 21/60/18 30/59/18 60/146/18 51/147/18
f 80/148/1 57/85/1 52/88/1 85/149/1
f 87/150/2 85/151/2 52/83/2 54/66/2
f 109/152/20 38/153/20 71/154/20 117/155/20
f 86/156/14 87/150/14 54/66/14 53/65/14
f 79/157/15 88/158/15 55/62/15 56/61/15
f 24/86/1 62/159/1 67/160/1 22/87/1
f 28/67/2 22/84/2 67/161/2 69/162/2
f 107/74/10 26/68/10 68/163/10 115/164/10
f 26/68/14 28/67/14 69/162/14 68/163/14
f 23/64/15 29/63/15 70/165/15 61/166/15
f 91/167/4 66/79/4 61/82/4 96/168/4
f 99/169/6 97/170/6 62/77/6 64/70/6
f 124/171/7 98/172/7 63/69/7 116/75/7
f 98/172/11 99/169/11 64/70/11 63/69/11
f 91/173/18 100/174/18 65/58/18 66/57/18
f 123/175/21 101/176/21 73/177/21 118/178/21
f 121/179/22 89/180/22 75/181/22 119/182/22
f 112/183/23 45/184/23 74/185/23 118/186/23
f 114/187/24 55/188/24 76/189/24 119/190/24
f 95/191/25 70/192/25 78/193/25 102/194/25
f 88/195/26 40/196/26 72/197/26 90/198/26
f 93/199/27 43/200/27 73/201/27 101/202/27
f 86/203/28 53/204/28 75/205/28 89/206/28
f 38/207/29 86/203/29 89/206/29 71/208/29
f 55/209/30 88/195/30 90/198/30 76/210/30
f 117/211/31 71/212/31 89/180/31 121/179/31
f 31/104/15 40/103/15 88/158/15 79/157/15
f 38/99/14 39/96/14 87/150/14 86/156/14
f 39/96/2 37/95/2 85/151/2 87/150/2
f 32/90/1 80/148/1 85/149/1 37/91/1
f 51/140/4 84/111/4 79/112/4 56/141/4
f 59/143/6 57/142/6 80/110/6 82/108/6
f 113/145/7 58/144/7 81/107/7 122/109/7
f 58/144/11 59/143/11 82/108/11 81/107/11
f 51/147/18 60/146/18 83/106/18 84/105/18
f 68/213/32 93/199/32 101/202/32 77/214/32
f 45/215/33 95/191/33 102/194/33 74/216/33
f 120/217/34 77/218/34 101/176/34 123/175/34
f 41/128/18 50/127/18 100/174/18 91/173/18
f 48/123/11 49/120/11 99/169/11 98/172/11
f 111/124/7 48/123/7 98/172/7 124/171/7
f 49/120/6 47/119/6 97/170/6 99/169/6
f 41/114/4 91/167/4 96/168/4 46/115/4
f 62/159/1 97/138/1 92/139/1 67/160/1
f 69/162/2 67/161/2 92/137/2 94/132/2
f 68/163/14 69/162/14 94/132/14 93/131/14
f 61/166/15 70/165/15 95/130/15 96/129/15
f 50/127/7 111/124/7 124/171/7 100/174/7
f 78/219/35 120/217/35 123/175/35 102/220/35
f 60/146/7 113/145/7 122/109/7 83/106/7
f 72/221/36 117/211/36 121/179/36 90/222/36
f 53/223/37 114/187/37 119/190/37 75/224/37
f 43/225/38 112/183/38 118/186/38 73/226/38
f 90/222/39 121/179/39 119/182/39 76/227/39
f 102/220/40 123/175/40 118/178/40 74/228/40
f 100/174/7 124/171/7 116/75/7 65/58/7
f 29/63/10 107/74/10 115/164/10 70/165/10
f 40/229/41 109/152/41 117/155/41 72/230/41
f 30/59/7 108/76/7 113/145/7 60/146/7
f 70/231/42 115/133/42 120/136/42 78/232/42
f 19/126/7 106/121/7 111/124/7 50/127/7
f 83/106/7 122/109/7 110/25/7 35/54/7
f 18/102/10 105/97/10 109/100/10 40/103/10
f 65/58/7 116/75/7 108/76/7 30/59/7
f 55/62/10 114/73/10 107/74/10 29/63/10
f 45/42/10 112/37/10 103/40/10 20/43/10
f 20/46/9 103/33/9 106/36/9 19/47/9
f 17/50/8 104/29/8 105/32/8 18/51/8
f 35/54/7 110/25/7 104/28/7 17/55/7
