# Blender v3.1.2 OBJ File: 'Slime.blend'
# www.blender.org
mtllib slime.mtl
o Slime_立方体
v -1.000000 -1.000000 1.000000
v -0.598132 1.000000 0.585382
v -1.000000 -1.000000 -1.000000
v -0.598132 1.000000 -0.585382
v 1.000000 -1.000000 1.000000
v 0.598132 1.000000 0.585382
v 1.000000 -1.000000 -1.000000
v 0.598132 1.000000 -0.585382
v -1.000000 0.000000 1.000000
v -1.000000 0.000000 -1.000000
v 1.000000 0.000000 -1.000000
v 1.000000 0.000000 1.000000
v -0.797641 0.500000 0.892669
v -0.797641 0.500000 -0.892669
v 0.797641 0.500000 -0.892669
v 0.797641 0.500000 0.892669
v -0.780571 -0.500000 -0.838584
v 0.780571 -0.500000 -0.838584
v 0.780571 -0.500000 0.838584
v -0.780571 -0.500000 0.838584
v -1.282573 -1.000000 0.000000
v -0.770578 1.053805 0.000000
v 1.282573 -1.000000 0.000000
v 0.770578 1.053805 0.000000
v 1.259785 0.000000 0.000000
v -1.259785 0.000000 0.000000
v 1.000000 0.500000 0.000000
v -1.000000 0.500000 0.000000
v -1.000000 -0.500000 0.000000
v 1.000000 -0.500000 0.000000
v 0.000000 -1.000000 -1.148123
v 0.000000 1.034815 -0.691727
v 0.000000 -1.000000 1.148123
v 0.000000 1.034815 0.691727
v 0.000000 0.000000 1.104825
v 0.000000 0.000000 -1.104825
v 0.000000 0.500000 1.000000
v 0.000000 0.500000 -1.000000
v 0.000000 -0.500000 -1.000000
v 0.000000 -0.500000 1.000000
v 0.000000 1.159517 0.000000
v 0.500000 0.000000 1.052413
v 0.483212 0.500000 0.946334
v -0.500000 0.000000 1.052413
v -0.483212 0.500000 0.946334
v -0.273362 0.472545 1.069268
v -0.456769 0.049761 1.097327
v 0.272315 0.049761 1.123533
v 0.462296 0.472545 1.042436
v 0.250000 0.000000 1.078619
v 0.254054 0.500000 0.973167
v -0.462296 0.472545 1.042436
v -0.272315 0.049761 1.123533
v -0.250000 0.000000 1.078619
v -0.254054 0.500000 0.973167
v 0.273362 0.472545 1.069268
v 0.456769 0.049761 1.097327
vt 0.122572 0.797377
vt 0.148709 0.763032
vt 0.169133 0.792855
vt 0.254789 0.770766
vt 0.294121 0.739711
vt 0.308064 0.771262
vt 0.789678 0.213359
vt 0.774267 0.245513
vt 0.773513 0.214622
vt 0.250549 0.802052
vt 0.305458 0.828345
vt 0.254925 0.828170
vt 0.126813 0.828664
vt 0.165690 0.850242
vt 0.122436 0.854782
vt 0.817544 0.175743
vt 0.808090 0.251568
vt 0.802955 0.183392
vt 0.303903 0.648544
vt 0.257116 0.679717
vt 0.257251 0.650008
vt 0.178424 0.823268
vt 0.127055 0.886295
vt 0.178288 0.880673
vt 0.250307 0.859684
vt 0.310913 0.859684
vt 0.802955 0.093475
vt 0.792488 0.169109
vt 0.788234 0.100997
vt 0.211671 0.823630
vt 0.199073 0.854062
vt 0.071903 0.854956
vt 0.066448 0.886295
vt 0.928742 0.133841
vt 0.920381 0.100392
vt 0.929245 0.093297
vt 0.228652 0.736420
vt 0.208228 0.766244
vt 0.083240 0.766323
vt 0.069298 0.797873
vt 0.222906 0.615027
vt 0.257648 0.615029
vt 0.349834 0.897369
vt 0.390096 0.868879
vt 0.390096 0.904276
vt 0.066448 0.679217
vt 0.083541 0.622784
vt 0.143654 0.615027
vt 0.323087 0.857382
vt 0.310913 0.890691
vt 0.852937 0.129899
vt 0.853453 0.099242
vt 0.210876 0.647969
vt 0.339942 0.809483
vt 0.340127 0.822824
vt 0.313665 0.829159
vt 0.211941 0.703089
vt 0.198938 0.677646
vt 0.398789 0.840177
vt 0.368714 0.853063
vt 0.368352 0.823948
vt 0.817544 0.175743
vt 0.808090 0.099918
vt 0.817544 0.093475
vt 0.340498 0.841115
vt 0.928742 0.214802
vt 0.920381 0.248313
vt 0.919878 0.218510
vt 0.788234 0.175997
vt 0.777767 0.100363
vt 0.788234 0.093475
vt 0.789678 0.213359
vt 0.774267 0.181204
vt 0.789678 0.175997
vt 0.257061 0.736420
vt 0.257251 0.706005
vt 0.198938 0.796657
vt 0.310777 0.802279
vt 0.340498 0.748076
vt 0.368352 0.765627
vt 0.340127 0.766461
vt 0.311288 0.926153
vt 0.398789 0.749129
vt 0.425606 0.794975
vt 0.397672 0.794794
vt 0.292664 0.615458
vt 0.302977 0.703651
vt 0.315565 0.734363
vt 0.426631 0.853167
vt 0.852937 0.218425
vt 0.853453 0.248953
vt 0.368170 0.780230
vt 0.339756 0.794690
vt 0.339942 0.779849
vt 0.313665 0.759392
vt 0.368170 0.809391
vt 0.121731 0.763032
vt 0.066448 0.738181
vt 0.378297 0.937650
vt 0.342802 0.941765
vt 0.066584 0.828890
vt 0.118842 0.763304
vt 0.258519 0.736693
vt 0.789678 0.250720
vt 0.817544 0.258012
vt 0.315565 0.678367
vt 0.802955 0.175997
vt 0.919878 0.130323
vt 0.358003 0.853167
vt 0.198938 0.639877
vt 0.198938 0.698842
vt 0.310913 0.794365
vt 0.367989 0.794833
vt 0.802955 0.168094
vt 0.929245 0.255219
vt 0.773513 0.168475
vt 0.773513 0.212095
vt 0.198938 0.733643
vt 0.368714 0.736420
vt 0.426631 0.736525
vt 0.181845 0.755274
vn -0.8635 0.4648 -0.1957
vn 0.8635 0.4648 0.1957
vn -0.0380 0.9628 0.2674
vn 0.8644 -0.4491 0.2262
vn -0.8644 -0.4491 -0.2262
vn -0.9784 0.0287 0.2048
vn 0.1306 0.2034 -0.9703
vn -0.8920 0.4044 -0.2022
vn -0.8572 0.4544 -0.2422
vn 0.8572 0.4544 0.2422
vn -0.9761 0.0154 0.2168
vn 0.8572 0.4544 -0.2422
vn -0.8572 0.4544 0.2422
vn -0.0811 -0.6281 0.7739
vn -0.8644 -0.4491 0.2262
vn 0.8644 -0.4491 -0.2262
vn 0.8635 0.4648 -0.1957
vn -0.8635 0.4648 0.1957
vn -0.1801 0.4912 -0.8522
vn -0.0885 0.9803 0.1767
vn 0.0000 -1.0000 0.0000
vn -0.0885 0.9803 -0.1767
vn -0.1395 0.1257 0.9822
vn -0.1306 0.2034 -0.9703
vn 0.0957 0.5681 0.8174
vn -0.0979 -0.3444 -0.9337
vn 0.0979 -0.3444 0.9337
vn 0.9266 0.0848 0.3664
vn 0.1645 0.2100 0.9638
vn 0.1016 -0.6913 0.7154
vn 0.7910 0.1523 0.5926
vn 0.0329 0.9591 0.2812
vn -0.1945 0.2786 -0.9405
vn 0.8920 0.4044 -0.2022
vn 0.8647 0.4493 0.2246
vn -0.1645 0.2100 0.9638
vn 0.0885 0.9803 -0.1767
vn -0.1945 0.2786 0.9405
vn 0.1112 0.5522 -0.8263
vn 0.1984 -0.2011 -0.9593
vn 0.1368 0.3582 -0.9236
vn 0.1368 0.3582 0.9236
vn 0.1395 0.1257 0.9822
vn -0.1028 0.2045 0.9735
vn -0.0957 0.5681 0.8174
vn -0.1937 -0.2919 0.9366
vn 0.1028 0.2045 0.9735
vn 0.1348 0.9823 0.1300
vn -0.8920 0.4044 0.2022
vn -0.8831 0.3658 -0.2938
vn 0.8831 0.3658 0.2938
vn -0.0329 0.9591 0.2812
vn 0.8636 -0.4514 0.2244
vn -0.8636 -0.4514 -0.2244
vn -0.9266 0.0848 0.3664
vn 0.1010 0.2477 -0.9636
vn -0.8647 0.4493 -0.2246
vn -0.8488 0.4797 -0.2221
vn 0.8488 0.4797 0.2221
vn -0.7910 0.1523 0.5926
vn 0.8488 0.4797 -0.2221
vn -0.8488 0.4797 0.2221
vn -0.1016 -0.6913 0.7154
vn -0.8636 -0.4514 0.2244
vn 0.8636 -0.4514 -0.2244
vn 0.8831 0.3658 -0.2938
vn -0.8831 0.3658 0.2938
vn -0.1112 0.5522 -0.8263
vn -0.1348 0.9823 0.1300
vn -0.1348 0.9823 -0.1300
vn -0.1010 0.2477 -0.9636
vn 0.1396 0.5583 0.8178
vn 0.1786 0.5233 0.8332
vn 0.0911 0.4973 0.8628
vn -0.1984 -0.2011 -0.9593
vn 0.1021 -0.2041 0.9736
vn 0.1937 -0.2919 0.9366
vn 0.9784 0.0287 0.2048
vn 0.1010 0.2477 0.9636
vn 0.0811 -0.6281 0.7739
vn 0.9761 0.0154 0.2168
vn 0.0380 0.9628 0.2674
vn -0.1368 0.3582 -0.9236
vn 0.8647 0.4493 -0.2246
vn 0.8920 0.4044 0.2022
vn -0.1010 0.2477 0.9636
vn 0.1348 0.9823 -0.1300
vn -0.1368 0.3582 0.9236
vn 0.1801 0.4912 -0.8522
vn 0.0979 -0.3444 -0.9337
vn 0.1945 0.2786 -0.9405
vn 0.1945 0.2786 0.9405
vn -0.1021 0.2041 0.9736
vn -0.0911 0.4973 0.8628
vn -0.1786 0.5233 0.8332
vn -0.1396 0.5583 0.8178
vn -0.1021 -0.2041 0.9736
vn -0.0979 -0.3444 0.9337
vn 0.1021 0.2041 0.9736
vn 0.0885 0.9803 0.1767
vn -0.8647 0.4493 0.2246
usemtl SlimeMaterial
s off
f 28/1/1 4/2/1 14/3/1
f 27/4/2 6/5/2 16/6/2
f 55/7/3 52/8/3 46/9/3
f 25/10/4 19/11/4 30/12/4
f 26/13/5 17/14/5 29/15/5
f 51/16/6 48/17/6 56/18/6
f 15/19/7 36/20/7 38/21/7
f 10/22/8 28/1/8 14/3/8
f 21/23/9 17/14/9 3/24/9
f 23/25/10 19/11/10 5/26/10
f 45/27/11 47/28/11 52/29/11
f 18/30/12 23/25/12 7/31/12
f 20/32/13 21/23/13 1/33/13
f 54/34/14 47/35/14 44/36/14
f 20/32/15 26/13/15 29/15/15
f 18/30/16 25/10/16 30/12/16
f 8/37/17 27/4/17 15/38/17
f 2/39/18 28/1/18 13/40/18
f 38/21/19 4/41/19 32/42/19
f 41/43/20 2/44/20 34/45/20
f 31/46/21 7/47/21 23/48/21
f 4/49/22 41/43/22 32/50/22
f 47/35/23 46/51/23 52/52/23
f 36/20/24 14/53/24 38/21/24
f 51/54/25 43/55/25 6/56/25
f 36/20/26 17/57/26 10/58/26
f 19/59/27 12/60/27 42/61/27
f 55/62/28 53/63/28 54/64/28
f 42/61/29 16/65/29 43/55/29
f 50/66/30 57/67/30 48/68/30
f 43/69/31 57/70/31 42/71/31
f 51/72/32 49/73/32 43/74/32
f 31/75/33 17/57/33 39/76/33
f 27/4/34 11/77/34 15/38/34
f 27/4/35 12/78/35 25/10/35
f 13/79/36 44/80/36 45/81/36
f 41/43/37 8/82/37 32/50/37
f 20/83/38 33/84/38 40/85/38
f 38/21/39 8/86/39 15/19/39
f 36/20/40 18/87/40 39/76/40
f 31/75/41 18/87/41 7/88/41
f 19/59/42 33/84/42 5/89/42
f 56/90/43 57/67/43 49/91/43
f 54/92/44 37/93/44 55/94/44
f 55/94/45 2/95/45 45/81/45
f 20/83/46 40/85/46 44/80/46
f 37/93/47 50/96/47 51/54/47
f 21/97/21 3/98/21 31/46/21
f 41/43/48 6/99/48 24/100/48
f 28/1/49 9/101/49 13/40/49
f 28/1/50 22/102/50 4/2/50
f 27/4/51 24/103/51 6/5/51
f 55/7/52 45/104/52 52/8/52
f 25/10/53 12/78/53 19/11/53
f 26/13/54 10/22/54 17/14/54
f 51/16/55 50/105/55 48/17/55
f 15/19/56 11/106/56 36/20/56
f 10/22/57 26/13/57 28/1/57
f 21/23/58 29/15/58 17/14/58
f 23/25/59 30/12/59 19/11/59
f 45/27/60 44/107/60 47/28/60
f 18/30/61 30/12/61 23/25/61
f 20/32/62 29/15/62 21/23/62
f 54/34/63 53/108/63 47/35/63
f 20/32/64 9/101/64 26/13/64
f 18/30/65 11/77/65 25/10/65
f 8/37/66 24/103/66 27/4/66
f 2/39/67 22/102/67 28/1/67
f 38/21/68 14/53/68 4/41/68
f 41/43/69 22/109/69 2/44/69
f 23/48/21 5/110/21 33/111/21
f 33/111/21 31/46/21 23/48/21
f 4/49/70 22/109/70 41/43/70
f 47/35/23 53/108/23 46/51/23
f 36/20/71 10/58/71 14/53/71
f 16/65/72 6/56/72 43/55/72
f 6/56/73 34/112/73 51/54/73
f 34/112/74 37/93/74 51/54/74
f 36/20/75 39/76/75 17/57/75
f 42/61/76 50/96/76 40/85/76
f 50/96/76 35/113/76 40/85/76
f 40/85/77 19/59/77 42/61/77
f 55/62/78 46/114/78 53/63/78
f 42/61/79 12/60/79 16/65/79
f 50/66/80 42/115/80 57/67/80
f 43/69/81 49/116/81 57/70/81
f 51/72/82 56/117/82 49/73/82
f 31/75/83 3/118/83 17/57/83
f 27/4/84 25/10/84 11/77/84
f 27/4/85 16/6/85 12/78/85
f 13/79/86 9/119/86 44/80/86
f 41/43/87 24/100/87 8/82/87
f 20/83/88 1/120/88 33/84/88
f 38/21/89 32/42/89 8/86/89
f 36/20/90 11/106/90 18/87/90
f 31/75/91 39/76/91 18/87/91
f 19/59/92 40/85/92 33/84/92
f 56/90/43 48/68/43 57/67/43
f 54/92/93 35/113/93 37/93/93
f 55/94/94 37/93/94 34/112/94
f 34/112/95 2/95/95 55/94/95
f 2/95/96 13/79/96 45/81/96
f 35/113/97 54/92/97 40/85/97
f 54/92/97 44/80/97 40/85/97
f 44/80/98 9/119/98 20/83/98
f 37/93/99 35/113/99 50/96/99
f 31/46/21 33/111/21 21/97/21
f 33/111/21 1/121/21 21/97/21
f 41/43/100 34/45/100 6/99/100
f 28/1/101 26/13/101 9/101/101
