# Blender v3.1.2 OBJ File: ''
# www.blender.org
mtllib blade.mtl
o blade_立方体.001
v -0.052302 0.075546 -0.027508
v -0.052302 0.075546 0.025409
v -0.051016 -0.606712 -0.026480
v -0.051016 -0.355645 -0.028010
v 0.027249 -0.021491 -0.028010
v 0.027249 -0.435012 -0.028010
v 0.027249 -0.681791 -0.026841
v 0.027249 -0.021491 0.025409
v 0.027249 -0.435012 0.025409
v 0.027249 -0.681764 0.024258
v -0.051016 -0.355645 0.025409
v 0.027249 -0.768979 -0.027990
v 0.027249 -0.768979 0.025389
v -0.051016 -0.693999 0.025409
v -0.051016 -0.693960 -0.027973
v -0.051016 -0.521298 -0.028010
v -0.051016 -0.424084 -0.028010
v 0.027249 -0.505067 -0.028010
v 0.027249 -0.602625 -0.028010
v 0.027249 -0.505067 0.025409
v 0.027249 -0.602625 0.025409
v -0.051016 -0.424084 0.025409
v -0.051016 -0.521298 0.025409
v -0.148899 -0.510440 -0.028010
v -0.148899 -0.510440 0.025409
v -0.148899 -0.598612 0.025409
v -0.148899 -0.598612 -0.028010
v -0.350750 -0.235008 -0.028010
v -0.350750 -0.136448 -0.028010
v -0.350750 -0.136448 0.025409
v -0.350750 -0.235008 0.025409
v 0.150214 -0.634254 -0.028010
v 0.150214 -0.729303 -0.028010
v 0.150214 -0.634254 0.025409
v 0.150214 -0.729303 0.025409
v 0.250224 -0.899026 -0.028010
v 0.250224 -0.899026 0.025409
v 0.250224 -0.983569 -0.028010
v 0.250224 -0.983569 0.025409
v -0.051016 -0.605503 0.025409
v -0.051016 -0.254810 0.024405
v 0.027249 -0.333552 0.024314
v -0.151162 -0.249035 -0.028010
v -0.151162 -0.249035 0.025409
v -0.151162 -0.148762 -0.028010
v -0.151162 -0.148762 0.025409
v 0.249819 -0.651506 -0.028010
v 0.249819 -0.651506 0.025409
v 0.249819 -0.551281 -0.028010
v 0.249819 -0.551281 0.025409
v -0.051016 -0.254289 -0.026999
v 0.027249 -0.332992 -0.026335
vt 0.625000 0.250000
vt 0.562500 0.500000
vt 0.562500 0.250000
vt 0.531250 0.990543
vt 0.531524 0.250000
vt 0.500000 0.500000
vt 0.484375 0.750000
vt 0.484375 0.500000
vt 0.500000 0.750000
vt 0.484375 1.000000
vt 0.421875 0.250000
vt 0.421875 0.500000
vt 0.421875 0.500000
vt 0.500000 0.250000
vt 0.484375 0.250000
vt 0.468750 0.750000
vt 0.468750 1.000000
vt 0.468750 1.000000
vt 0.438583 0.965340
vt 0.468750 0.250000
vt 0.438356 0.250000
vt 0.468750 0.500000
vt 0.484375 0.500000
vt 0.483874 0.500000
vt 0.437500 0.750000
vt 0.421875 1.000000
vt 0.421875 0.750000
vt 0.421875 0.750000
vt 0.484375 0.750000
vt 0.468750 0.750000
vt 0.483702 0.000000
vt 0.468750 0.000000
vt 0.484375 0.000000
vt 0.421875 1.000000
vt 0.437500 0.610880
vt 0.422613 0.743431
vt 0.438412 0.614940
vt 0.484375 0.250000
vt 0.468750 0.500000
vt 0.468750 0.250000
vt 0.483702 0.750000
vt 0.437500 0.250000
vt 0.421875 0.250000
vt 0.422405 0.250000
vt 0.422405 0.500000
vt 0.437500 0.500000
vt 0.437500 0.500000
vt 0.468750 0.000000
vt 0.437500 0.966566
vt 0.437557 0.483487
vt 0.531250 0.750000
vt 0.500000 0.750000
vt 0.531250 0.750000
vt 0.500000 1.000000
vt 0.500000 1.000000
vt 0.531238 0.250000
vt 0.500000 0.500000
vt 0.500000 0.250000
vt 0.531238 0.500000
vt 0.531238 0.500000
vt 0.531238 0.485130
vt 0.531238 0.265674
vt 0.484375 0.000000
vt 0.625000 0.750000
vt 0.531449 0.750000
vt 0.531256 0.484135
vt 0.531250 0.759211
vt 0.531449 0.000000
vt 0.500000 0.000000
vt 0.531250 1.000000
vt 0.500000 0.000000
vt 0.483874 0.250000
vt 0.437500 1.000000
vt 0.437500 0.266410
vt 0.437500 0.250000
vt 0.422632 0.048468
vt 0.437500 1.000000
vt 0.437500 0.000000
vt 0.421875 0.000000
vt 0.437500 0.000000
vt 0.625000 0.500000
vt 0.421875 0.000000
vt 0.484375 1.000000
vt 0.438356 0.500000
vt 0.531524 0.500000
vt 0.437500 0.484571
vt 0.422632 0.000000
vn 0.7733 0.6340 0.0000
vn 0.0031 -0.0054 -1.0000
vn -0.0000 0.0000 1.0000
vn -1.0000 0.0000 0.0000
vn -0.6934 -0.7205 0.0000
vn 1.0000 0.0000 0.0000
vn -0.6907 -0.7231 0.0000
vn -0.0188 -0.0148 -0.9997
vn -0.6918 -0.7221 0.0000
vn 0.0000 0.0000 -1.0000
vn -0.6978 -0.7163 0.0000
vn 0.6924 0.7215 0.0000
vn -0.7175 -0.6965 -0.0000
vn 0.7243 0.6894 0.0000
vn -0.0001 0.0000 -1.0000
vn 0.0075 0.0130 0.9999
vn 0.0106 0.0100 0.9999
vn -0.7289 -0.6847 0.0000
vn -0.6973 -0.7168 0.0000
vn 0.0056 0.0108 0.9999
vn 0.7002 0.7139 0.0079
vn 0.0109 0.0108 0.9999
vn 0.0086 0.0164 -0.9998
vn -1.0000 -0.0039 0.0000
vn -0.0037 -0.0031 1.0000
vn 0.7271 0.6865 0.0070
vn 0.0101 0.0000 -0.9999
vn 0.0185 0.0100 -0.9998
vn 0.7013 0.7127 -0.0166
vn 0.6978 0.7163 0.0000
vn 0.0118 0.0171 -0.9998
vn 0.0127 0.0130 0.9998
vn 0.0156 0.0000 -0.9999
vn -0.0082 -0.0016 -1.0000
vn -0.0186 -0.0179 -0.9997
vn -0.6920 -0.7219 -0.0005
vn -0.6979 -0.7162 -0.0005
vn 0.0005 -0.0145 0.9999
vn 0.0076 0.0132 -0.9999
vn -0.0001 0.0000 1.0000
vn 0.0100 0.0000 0.9999
vn 0.6993 0.7148 0.0000
vn 0.0112 0.0100 0.9999
vn -0.0024 -0.0035 1.0000
vn 0.7254 0.6884 0.0000
vn 0.0106 0.0100 -0.9999
vn 0.0166 0.0164 -0.9997
vn 0.6967 0.7174 0.0000
vn 0.6979 0.7162 -0.0004
vn 0.0124 0.0132 -0.9998
vn 0.0147 0.0000 0.9999
vn 0.0170 0.0171 -0.9997
usemtl bladeMate
s off
f 1/1/1 8/2/1 5/3/1
f 51/4/2 5/3/2 52/5/2
f 9/6/3 22/7/3 20/8/3
f 11/9/4 17/10/4 22/7/4
f 12/11/5 39/12/5 13/13/5
f 6/14/6 20/8/6 18/15/6
f 23/16/7 28/17/7 16/18/7
f 3/19/8 19/20/8 7/21/8
f 21/22/3 34/23/3 20/24/3
f 25/25/4 27/26/4 26/27/4
f 14/28/9 12/11/9 13/13/9
f 30/29/4 28/17/4 31/30/4
f 17/31/10 28/32/10 29/33/10
f 15/34/11 26/27/11 27/26/11
f 17/10/12 30/29/12 22/7/12
f 40/35/3 26/27/3 14/36/3
f 40/37/3 21/22/3 23/16/3
f 32/38/6 35/39/6 33/40/6
f 22/41/3 31/30/3 23/16/3
f 19/20/13 35/39/13 21/22/13
f 20/8/14 32/38/14 18/15/14
f 36/42/6 39/12/6 38/43/6
f 12/44/15 36/42/15 38/43/15
f 13/45/16 37/46/16 10/47/16
f 20/24/3 23/16/3 21/22/3
f 40/37/4 16/48/4 3/49/4
f 19/20/6 10/50/6 7/21/6
f 41/51/17 44/52/17 11/9/17
f 46/53/4 43/54/4 44/52/4
f 11/9/18 43/54/18 4/55/18
f 49/56/6 48/57/6 47/58/6
f 6/14/19 48/57/19 9/6/19
f 9/6/20 50/59/20 42/60/20
f 42/61/21 49/56/21 52/62/21
f 42/60/22 11/9/22 9/6/22
f 17/63/10 6/14/10 18/15/10
f 49/56/23 6/14/23 52/62/23
f 51/4/24 2/64/24 1/1/24
f 41/65/25 8/2/25 2/64/25
f 52/5/6 8/2/6 42/66/6
f 51/4/26 46/53/26 41/67/26
f 51/68/27 43/69/27 45/70/27
f 52/62/28 4/71/28 51/68/28
f 16/48/10 18/72/10 19/20/10
f 19/20/10 32/38/10 33/40/10
f 24/73/29 40/37/29 3/49/29
f 7/74/30 37/46/30 36/42/30
f 7/75/31 15/76/31 3/77/31
f 10/47/32 14/36/32 13/45/32
f 3/78/33 27/79/33 24/80/33
f 1/1/1 2/81/1 8/2/1
f 51/4/34 1/1/34 5/3/34
f 9/6/3 11/9/3 22/7/3
f 11/9/4 4/55/4 17/10/4
f 12/11/5 38/43/5 39/12/5
f 6/14/6 9/6/6 20/8/6
f 23/16/7 31/30/7 28/17/7
f 3/19/35 16/48/35 19/20/35
f 21/22/3 35/39/3 34/23/3
f 25/25/4 24/73/4 27/26/4
f 14/28/36 15/82/36 12/11/36
f 30/29/4 29/83/4 28/17/4
f 17/31/10 16/48/10 28/32/10
f 15/34/37 14/28/37 26/27/37
f 17/10/12 29/83/12 30/29/12
f 40/35/3 25/25/3 26/27/3
f 40/37/38 10/84/38 21/22/38
f 32/38/6 34/23/6 35/39/6
f 22/41/3 30/29/3 31/30/3
f 19/20/13 33/40/13 35/39/13
f 20/8/14 34/23/14 32/38/14
f 36/42/6 37/46/6 39/12/6
f 12/44/39 7/75/39 36/42/39
f 13/45/40 39/12/40 37/46/40
f 20/24/3 22/41/3 23/16/3
f 40/37/4 23/16/4 16/48/4
f 19/20/6 21/22/6 10/50/6
f 41/51/41 46/53/41 44/52/41
f 46/53/4 45/70/4 43/54/4
f 11/9/18 44/52/18 43/54/18
f 49/56/6 50/59/6 48/57/6
f 6/14/19 47/58/19 48/57/19
f 9/6/3 48/57/3 50/59/3
f 42/61/42 50/59/42 49/56/42
f 42/60/43 41/51/43 11/9/43
f 17/63/10 4/71/10 6/14/10
f 49/56/10 47/58/10 6/14/10
f 51/4/24 41/65/24 2/64/24
f 41/65/44 42/85/44 8/2/44
f 52/5/6 5/3/6 8/2/6
f 51/4/45 45/70/45 46/53/45
f 51/68/46 4/71/46 43/69/46
f 52/62/47 6/14/47 4/71/47
f 16/48/10 17/31/10 18/72/10
f 19/20/10 18/72/10 32/38/10
f 24/73/48 25/25/48 40/37/48
f 7/74/49 10/86/49 37/46/49
f 7/75/50 12/44/50 15/76/50
f 10/47/51 40/35/51 14/36/51
f 3/78/52 15/87/52 27/79/52
