# Blender v3.1.2 OBJ File: 'Outside.blend'
# www.blender.org
mtllib outside.mtl
o Outside.001_円柱
v 0.000000 -1.000000 -1.000000
v 0.000000 1.000000 -1.000000
v 0.195090 -1.000000 -0.980785
v 0.195090 1.000000 -0.980785
v 0.382683 -1.000000 -0.923880
v 0.382683 1.000000 -0.923880
v 0.555570 -1.000000 -0.831470
v 0.555570 1.000000 -0.831470
v 0.707107 -1.000000 -0.707107
v 0.707107 1.000000 -0.707107
v 0.831470 -1.000000 -0.555570
v 0.831470 1.000000 -0.555570
v 0.923880 -1.000000 -0.382683
v 0.923880 1.000000 -0.382683
v 0.980785 -1.000000 -0.195090
v 0.980785 1.000000 -0.195090
v 1.000000 -1.000000 0.000000
v 1.000000 1.000000 0.000000
v 0.980785 -1.000000 0.195090
v 0.980785 1.000000 0.195090
v 0.923880 -1.000000 0.382683
v 0.923880 1.000000 0.382683
v 0.831470 -1.000000 0.555570
v 0.831470 1.000000 0.555570
v 0.707107 -1.000000 0.707107
v 0.707107 1.000000 0.707107
v 0.555570 -1.000000 0.831470
v 0.555570 1.000000 0.831470
v 0.382683 -1.000000 0.923880
v 0.382683 1.000000 0.923880
v 0.195090 -1.000000 0.980785
v 0.195090 1.000000 0.980785
v -0.000000 -1.000000 1.000000
v -0.000000 1.000000 1.000000
v -0.195090 -1.000000 0.980785
v -0.195090 1.000000 0.980785
v -0.382683 -1.000000 0.923880
v -0.382683 1.000000 0.923880
v -0.555570 -1.000000 0.831470
v -0.555570 1.000000 0.831470
v -0.707107 -1.000000 0.707107
v -0.707107 1.000000 0.707107
v -0.831469 -1.000000 0.555570
v -0.831469 1.000000 0.555570
v -0.923880 -1.000000 0.382684
v -0.923880 1.000000 0.382684
v -0.980785 -1.000000 0.195090
v -0.980785 1.000000 0.195090
v -1.000000 -1.000000 -0.000000
v -1.000000 1.000000 -0.000000
v -0.980785 -1.000000 -0.195090
v -0.980785 1.000000 -0.195090
v -0.923879 -1.000000 -0.382684
v -0.923879 1.000000 -0.382684
v -0.831470 -1.000000 -0.555570
v -0.831470 1.000000 -0.555570
v -0.707107 -1.000000 -0.707107
v -0.707107 1.000000 -0.707107
v -0.555570 -1.000000 -0.831470
v -0.555570 1.000000 -0.831470
v -0.382683 -1.000000 -0.923880
v -0.382683 1.000000 -0.923880
v -0.195090 -1.000000 -0.980785
v -0.195090 1.000000 -0.980785
vt 0.968750 0.000244
vt 1.000000 1.000000
vt 1.000000 0.000244
vt 0.937500 0.000244
vt 0.968750 1.000000
vt 0.906250 0.000244
vt 0.937500 1.000000
vt 0.875000 0.000244
vt 0.906250 1.000000
vt 0.843750 0.000244
vt 0.875000 1.000000
vt 0.812500 0.000244
vt 0.843750 1.000000
vt 0.781250 0.000244
vt 0.812500 1.000000
vt 0.750000 0.000244
vt 0.781250 1.000000
vt 0.718750 0.000244
vt 0.750000 1.000000
vt 0.687500 0.000244
vt 0.718750 1.000000
vt 0.656250 0.000244
vt 0.687500 1.000000
vt 0.625000 0.000244
vt 0.656250 1.000000
vt 0.593750 0.000244
vt 0.625000 1.000000
vt 0.562500 0.000244
vt 0.593750 1.000000
vt 0.531250 0.000244
vt 0.562500 1.000000
vt 0.500000 0.000244
vt 0.531250 1.000000
vt 0.468750 0.000244
vt 0.500000 1.000000
vt 0.437500 0.000244
vt 0.468750 1.000000
vt 0.406250 0.000244
vt 0.437500 1.000000
vt 0.375000 0.000244
vt 0.406250 1.000000
vt 0.343750 0.000244
vt 0.375000 1.000000
vt 0.312500 0.000244
vt 0.343750 1.000000
vt 0.281250 0.000244
vt 0.312500 1.000000
vt 0.250000 0.000244
vt 0.281250 1.000000
vt 0.218750 0.000244
vt 0.250000 1.000000
vt 0.187500 0.000244
vt 0.218750 1.000000
vt 0.156250 0.000244
vt 0.187500 1.000000
vt 0.125000 0.000244
vt 0.156250 1.000000
vt 0.093750 0.000244
vt 0.125000 1.000000
vt 0.062500 0.000244
vt 0.093750 1.000000
vt 0.031250 0.000244
vt 0.062500 1.000000
vt 0.000000 0.000244
vt 0.031250 1.000000
vt 0.000000 1.000000
vn -0.0980 0.0000 0.9952
vn -0.2903 0.0000 0.9569
vn -0.4714 0.0000 0.8819
vn -0.6344 0.0000 0.7730
vn -0.7730 0.0000 0.6344
vn -0.8819 0.0000 0.4714
vn -0.9569 0.0000 0.2903
vn -0.9952 0.0000 0.0980
vn -0.9952 0.0000 -0.0980
vn -0.9569 0.0000 -0.2903
vn -0.8819 0.0000 -0.4714
vn -0.7730 0.0000 -0.6344
vn -0.6344 0.0000 -0.7730
vn -0.4714 0.0000 -0.8819
vn -0.2903 0.0000 -0.9569
vn -0.0980 0.0000 -0.9952
vn 0.0980 0.0000 -0.9952
vn 0.2903 0.0000 -0.9569
vn 0.4714 0.0000 -0.8819
vn 0.6344 0.0000 -0.7730
vn 0.7730 0.0000 -0.6344
vn 0.8819 0.0000 -0.4714
vn 0.9569 0.0000 -0.2903
vn 0.9952 0.0000 -0.0980
vn 0.9952 0.0000 0.0980
vn 0.9569 0.0000 0.2903
vn 0.8819 0.0000 0.4714
vn 0.7730 0.0000 0.6344
vn 0.6344 0.0000 0.7730
vn 0.4714 0.0000 0.8819
vn 0.2903 0.0000 0.9569
vn 0.0980 0.0000 0.9952
usemtl OutsideMate
s off
f 3/1/1 2/2/1 1/3/1
f 5/4/2 4/5/2 3/1/2
f 7/6/3 6/7/3 5/4/3
f 9/8/4 8/9/4 7/6/4
f 11/10/5 10/11/5 9/8/5
f 13/12/6 12/13/6 11/10/6
f 15/14/7 14/15/7 13/12/7
f 17/16/8 16/17/8 15/14/8
f 19/18/9 18/19/9 17/16/9
f 21/20/10 20/21/10 19/18/10
f 23/22/11 22/23/11 21/20/11
f 25/24/12 24/25/12 23/22/12
f 27/26/13 26/27/13 25/24/13
f 29/28/14 28/29/14 27/26/14
f 31/30/15 30/31/15 29/28/15
f 33/32/16 32/33/16 31/30/16
f 35/34/17 34/35/17 33/32/17
f 37/36/18 36/37/18 35/34/18
f 39/38/19 38/39/19 37/36/19
f 41/40/20 40/41/20 39/38/20
f 43/42/21 42/43/21 41/40/21
f 45/44/22 44/45/22 43/42/22
f 47/46/23 46/47/23 45/44/23
f 49/48/24 48/49/24 47/46/24
f 51/50/25 50/51/25 49/48/25
f 53/52/26 52/53/26 51/50/26
f 55/54/27 54/55/27 53/52/27
f 57/56/28 56/57/28 55/54/28
f 59/58/29 58/59/29 57/56/29
f 61/60/30 60/61/30 59/58/30
f 63/62/31 62/63/31 61/60/31
f 1/64/32 64/65/32 63/62/32
f 3/1/1 4/5/1 2/2/1
f 5/4/2 6/7/2 4/5/2
f 7/6/3 8/9/3 6/7/3
f 9/8/4 10/11/4 8/9/4
f 11/10/5 12/13/5 10/11/5
f 13/12/6 14/15/6 12/13/6
f 15/14/7 16/17/7 14/15/7
f 17/16/8 18/19/8 16/17/8
f 19/18/9 20/21/9 18/19/9
f 21/20/10 22/23/10 20/21/10
f 23/22/11 24/25/11 22/23/11
f 25/24/12 26/27/12 24/25/12
f 27/26/13 28/29/13 26/27/13
f 29/28/14 30/31/14 28/29/14
f 31/30/15 32/33/15 30/31/15
f 33/32/16 34/35/16 32/33/16
f 35/34/17 36/37/17 34/35/17
f 37/36/18 38/39/18 36/37/18
f 39/38/19 40/41/19 38/39/19
f 41/40/20 42/43/20 40/41/20
f 43/42/21 44/45/21 42/43/21
f 45/44/22 46/47/22 44/45/22
f 47/46/23 48/49/23 46/47/23
f 49/48/24 50/51/24 48/49/24
f 51/50/25 52/53/25 50/51/25
f 53/52/26 54/55/26 52/53/26
f 55/54/27 56/57/27 54/55/27
f 57/56/28 58/59/28 56/57/28
f 59/58/29 60/61/29 58/59/29
f 61/60/30 62/63/30 60/61/30
f 63/62/31 64/65/31 62/63/31
f 1/64/32 2/66/32 64/65/32
