# Blender v3.1.2 OBJ File: 'switch.blend'
# www.blender.org
mtllib shell.mtl
o leverShell_立方体.005
v -1.113524 1.119213 0.000000
v -0.629047 0.328656 0.000000
v -0.530082 0.004857 0.000000
v 0.002025 -0.167637 0.000000
v -0.299886 0.140210 -0.221738
v -0.074547 0.083554 -0.221738
v -0.340003 0.349010 -0.221738
v -0.074547 0.083554 0.221738
v -0.299886 0.140210 0.221738
v -0.340003 0.349010 0.221738
vt 0.375000 0.062500
vt 0.437500 0.187500
vt 0.125000 0.562500
vt 0.375000 0.687500
vt 0.437500 0.562500
vt 0.437500 0.687500
vt 0.562500 0.562500
vt 0.562500 0.250000
vt 0.625000 0.500000
vt 0.562500 0.187500
vt 0.437500 0.062500
vt 0.375000 0.562500
vn -0.2291 -0.7068 0.6693
vn -0.1712 -0.6808 -0.7122
vn -0.5569 -0.3413 -0.7572
vn -0.5569 -0.3413 0.7572
vn -0.1712 -0.6808 0.7122
vn -0.2291 -0.7068 -0.6693
usemtl leverShellMate
s off
f 4/1/1 9/2/1 3/3/1
f 4/4/2 5/5/2 6/6/2
f 7/7/3 2/8/3 1/9/3
f 1/9/4 2/8/4 10/10/4
f 4/1/5 8/11/5 9/2/5
f 4/4/6 3/12/6 5/5/6
