# Blender v3.1.2 OBJ File: 'goal.blend'
# www.blender.org
mtllib insideCore.mtl
o insideCore_inside.001
v -1.501759 0.000000 0.000000
v 0.000000 1.501759 0.000000
v 0.000000 -1.501759 0.000000
v 1.501759 0.000000 0.000000
v 0.000000 1.000458 -0.100422
v 0.000000 1.000458 0.100422
v -1.000458 0.000000 0.100422
v -1.000458 0.000000 -0.100422
v 1.000458 0.000000 0.100422
v 1.000458 0.000000 -0.100422
v 0.000000 -1.000458 -0.100422
v 0.000000 -1.000458 0.100422
vt 0.605889 0.674690
vt 0.655536 0.894219
vt 0.605889 0.938200
vt 0.565288 0.058763
vt 0.453288 0.319446
vt 0.453288 0.058763
vt 0.836595 0.315029
vt 0.757102 0.062825
vt 0.836595 0.062825
vt 0.583703 0.057821
vt 0.695702 0.318505
vt 0.583703 0.318505
vt 0.932004 0.313361
vt 0.851605 0.060415
vt 0.932004 0.060415
vt 0.681374 0.714980
vt 0.731021 0.934508
vt 0.681374 0.890527
vt 0.161924 0.720447
vt 0.250192 0.966689
vt 0.161924 0.917356
vt 0.780667 0.890527
vt 0.731021 0.670999
vt 0.780667 0.714980
vt 0.161924 0.671115
vt 0.073657 0.917356
vt 0.073657 0.720447
vt 0.326544 0.910473
vt 0.406094 0.637213
vt 0.406094 0.965218
vt 0.406094 0.691958
vt 0.485643 0.965218
vt 0.406094 0.910473
vt 0.556243 0.894219
vt 0.556243 0.718671
vt 0.655536 0.718671
vt 0.565288 0.319446
vt 0.757102 0.315029
vt 0.695702 0.057821
vt 0.851605 0.313361
vt 0.250192 0.671115
vt 0.161924 0.966689
vt 0.326544 0.691958
vt 0.485643 0.637213
vn -0.1927 -0.1927 0.9621
vn 0.7071 0.7071 0.0000
vn -0.7071 0.7071 0.0000
vn -0.7071 -0.7071 0.0000
vn 0.7071 -0.7071 0.0000
vn 0.1927 0.1927 -0.9621
vn 0.1927 -0.1927 -0.9621
vn 0.1927 0.1927 0.9621
vn -0.1927 0.1927 0.9621
vn -0.1927 0.1927 -0.9621
vn 0.1927 -0.1927 0.9621
vn -0.1927 -0.1927 -0.9621
usemtl insideCoreMate
s off
f 3/1/1 7/2/1 1/3/1
f 11/4/2 7/5/2 12/6/2
f 9/7/3 11/8/3 12/9/3
f 6/10/4 10/11/4 9/12/4
f 5/13/5 7/14/5 8/15/5
f 5/16/6 4/17/6 10/18/6
f 10/19/7 3/20/7 11/21/7
f 9/22/8 2/23/8 6/24/8
f 2/25/9 7/26/9 6/27/9
f 5/28/10 1/29/10 2/30/10
f 12/31/11 4/32/11 9/33/11
f 3/1/12 8/34/12 11/35/12
f 3/1/1 12/36/1 7/2/1
f 11/4/2 8/37/2 7/5/2
f 9/7/3 10/38/3 11/8/3
f 6/10/4 5/39/4 10/11/4
f 5/13/5 6/40/5 7/14/5
f 5/16/6 2/23/6 4/17/6
f 10/19/7 4/41/7 3/20/7
f 9/22/8 4/17/8 2/23/8
f 2/25/9 1/42/9 7/26/9
f 5/28/10 8/43/10 1/29/10
f 12/31/11 3/44/11 4/32/11
f 3/1/12 1/3/12 8/34/12
