# Blender v3.1.2 OBJ File: 'spring.blend'
# www.blender.org
mtllib core.mtl
o core_立方体.007
v 0.000000 0.126665 0.000000
v 0.000000 -0.383841 0.000000
v 0.141564 -0.227495 0.000000
v -0.141564 -0.227495 0.000000
v 0.000000 -0.227495 0.139743
v 0.000000 -0.227495 -0.139743
vt 0.500000 0.625000
vt 0.375000 0.375000
vt 0.500000 0.375000
vt 0.625000 0.625000
vt 0.625000 0.875000
vt 0.500000 0.875000
vt 0.500000 0.125000
vt 0.375000 0.875000
vt 0.375000 0.625000
vt 0.375000 0.125000
vt 0.625000 0.125000
vt 0.625000 0.375000
vn 0.5928 -0.5367 -0.6005
vn 0.6764 0.2704 -0.6852
vn 0.6764 0.2704 0.6852
vn -0.5928 -0.5367 0.6005
vn 0.5928 -0.5367 0.6005
vn -0.5928 -0.5367 -0.6005
vn -0.6764 0.2704 0.6852
vn -0.6764 0.2704 -0.6852
usemtl coreMate
s off
f 3/1/1 2/2/1 6/3/1
f 1/4/2 3/1/2 6/3/2
f 1/5/3 5/6/3 3/1/3
f 4/7/4 2/8/4 5/6/4
f 5/6/5 2/9/5 3/1/5
f 6/3/6 2/10/6 4/7/6
f 1/11/7 4/7/7 5/6/7
f 1/12/8 6/3/8 4/7/8
