# Blender v3.1.2 OBJ File: 'tower.blend'
# www.blender.org
mtllib core.mtl
o Core_立方体.004
v -1.051921 0.053426 1.042011
v -0.848079 5.946574 0.857988
v -1.051931 0.053719 -1.050360
v -0.848069 5.946281 -0.849639
v 1.041189 0.053050 1.042011
v 0.858811 5.946950 0.857988
v 1.041198 0.053342 -1.050362
v 0.858801 5.946658 -0.849637
vt 0.375000 0.000000
vt 0.625000 0.250000
vt 0.375000 0.250000
vt 0.375000 0.500000
vt 0.625000 0.500000
vt 0.375000 0.750000
vt 0.625000 1.000000
vt 0.375000 1.000000
vt 0.125000 0.750000
vt 0.125000 0.500000
vt 0.875000 0.500000
vt 0.625000 0.750000
vt 0.625000 0.000000
vt 0.875000 0.750000
vn -0.9994 0.0346 0.0000
vn 0.0000 0.0340 -0.9994
vn 0.9995 0.0309 0.0000
vn 0.0000 0.0312 0.9995
vn -0.0002 -1.0000 -0.0001
vn -0.0002 1.0000 -0.0002
usemtl coreMaterial
s off
f 1/1/1 4/2/1 3/3/1
f 4/2/2 7/4/2 3/3/2
f 8/5/3 5/6/3 7/4/3
f 5/6/4 2/7/4 1/8/4
f 7/4/5 1/9/5 3/10/5
f 4/11/6 6/12/6 8/5/6
f 1/1/1 2/13/1 4/2/1
f 4/2/2 8/5/2 7/4/2
f 8/5/3 6/12/3 5/6/3
f 5/6/4 6/12/4 2/7/4
f 7/4/5 5/6/5 1/9/5
f 4/11/6 2/14/6 6/12/6
