# Blender v3.1.2 OBJ File: ''
# www.blender.org
mtllib building.mtl
o Building_立方体.001
v -1.000000 0.000000 1.000000
v -1.000000 5.017184 1.000000
v -1.000000 0.000000 -1.000000
v -1.000000 5.017184 -1.000000
v 1.000000 0.000000 1.000000
v 1.000000 5.017184 1.000000
v 1.000000 0.000000 -1.000000
v 1.000000 5.017184 -1.000000
vt 1.000000 0.627148
vt 0.750000 0.000000
vt 1.000000 0.000000
vt 0.250000 0.627148
vt 0.000000 0.000000
vt 0.250000 0.000000
vt 0.500000 0.627148
vt 0.250000 0.000000
vt 0.500000 0.000000
vt 0.750000 0.627148
vt 0.500000 0.000000
vt 0.750000 0.000000
vt 0.500000 0.627148
vt 0.250000 0.877148
vt 0.250000 0.627148
vt 0.000000 0.877148
vt 0.000000 0.627148
vt 0.750000 0.627148
vt 0.250000 0.627148
vt 0.500000 0.627148
vt 0.500000 0.877148
vt 0.250000 0.877148
vn -1.0000 0.0000 0.0000
vn 0.0000 0.0000 -1.0000
vn 1.0000 0.0000 0.0000
vn 0.0000 0.0000 1.0000
vn 0.0000 -1.0000 0.0000
vn 0.0000 1.0000 0.0000
usemtl buildingMate
s off
f 2/1/1 3/2/1 1/3/1
f 4/4/2 7/5/2 3/6/2
f 8/7/3 5/8/3 7/9/3
f 6/10/4 1/11/4 5/12/4
f 7/13/5 1/14/5 3/15/5
f 4/4/6 6/16/6 8/17/6
f 2/1/1 4/18/1 3/2/1
f 4/4/2 8/17/2 7/5/2
f 8/7/3 6/19/3 5/8/3
f 6/10/4 2/20/4 1/11/4
f 7/13/5 5/21/5 1/14/5
f 4/4/6 2/22/6 6/16/6
