# Blender v3.1.2 OBJ File: 'player.blend'
# www.blender.org
mtllib leg_L.mtl
o leg_L_立方体.002
v 0.259233 -1.000000 0.613153
v 0.259233 -0.800525 0.613153
v 0.182321 -1.000000 -0.486737
v 0.182321 -0.797709 -0.486737
v 0.657620 -1.000000 0.585295
v 0.657620 -0.800525 0.585295
v 0.580708 -1.000000 -0.514595
v 0.580708 -0.797709 -0.514595
v 0.246302 -0.701387 0.010748
v 0.553698 -0.701387 -0.010748
v 0.225311 -0.701387 -0.289440
v 0.532706 -0.701387 -0.310935
vt 0.625000 0.500000
vt 0.625000 0.625000
vt 0.625000 0.750000
vt 0.875000 0.750000
vt 0.125000 0.500000
vt 0.625000 0.000000
vt 0.625000 0.250000
vt 0.625000 0.187500
vt 0.875000 0.625000
vt 0.625000 0.125000
vt 0.375000 0.250000
vt 0.375000 0.750000
vt 0.375000 0.500000
vt 0.875000 0.500000
vt 0.625000 0.562500
vt 0.375000 1.000000
vt 0.875000 0.562500
vn 0.8418 0.5368 -0.0575
vn 0.0113 0.9867 0.1621
vn -0.9976 0.0000 0.0698
vn 0.0000 1.0000 -0.0000
vn -0.9549 0.2894 0.0668
vn -0.0698 0.0000 -0.9976
vn 0.0000 -1.0000 0.0000
vn -0.0303 0.9008 -0.4332
vn 0.9976 0.0000 -0.0698
vn 0.0698 0.0000 0.9976
vn 0.8385 0.5418 -0.0586
vn -0.9559 0.2859 0.0676
usemtl leg_LMate
s off
f 8/1/1 10/2/1 6/3/1
f 10/2/2 2/4/2 6/3/2
f 3/5/3 2/6/3 4/7/3
f 10/2/4 11/8/4 9/9/4
f 4/7/5 9/10/5 11/8/5
f 8/1/6 3/11/6 4/7/6
f 5/12/7 3/5/7 7/13/7
f 4/14/8 12/15/8 8/1/8
f 7/13/9 6/3/9 5/12/9
f 6/3/10 1/16/10 5/12/10
f 8/1/11 12/15/11 10/2/11
f 10/2/2 9/9/2 2/4/2
f 3/5/3 1/16/3 2/6/3
f 10/2/4 12/15/4 11/8/4
f 4/7/12 2/6/12 9/10/12
f 8/1/6 7/13/6 3/11/6
f 5/12/7 1/16/7 3/5/7
f 4/14/8 11/17/8 12/15/8
f 7/13/9 8/1/9 6/3/9
f 6/3/10 2/6/10 1/16/10
