# Blender v3.1.2 OBJ File: 'platform.blend'
# www.blender.org
mtllib right.mtl
o right_立方体.003
v 1.250000 -0.149887 0.821018
v 1.250000 0.149887 0.821018
v 0.750000 -0.300000 0.900000
v 0.750000 0.300000 0.900000
v 1.250000 -0.149887 -0.821018
v 1.250000 0.149887 -0.821018
v 0.750000 -0.300000 -0.900000
v 0.750000 0.300000 -0.900000
v 1.012622 -0.300000 0.900000
v 1.012622 0.300000 0.900000
v 1.012622 -0.300000 -0.900000
v 1.012622 0.300000 -0.900000
vt 0.625000 0.118689
vt 0.375000 0.250000
vt 0.375000 0.118689
vt 0.625000 0.250000
vt 0.375000 0.500000
vt 0.625000 0.631311
vt 0.375000 0.750000
vt 0.375000 0.631311
vt 0.625000 0.750000
vt 0.375000 1.000000
vt 0.125000 0.750000
vt 0.125000 0.631311
vt 0.875000 0.631311
vt 0.875000 0.500000
vt 0.625000 0.500000
vt 0.125000 0.500000
vt 0.625000 0.000000
vt 0.375000 0.000000
vt 0.625000 1.000000
vt 0.875000 0.750000
vn 0.0000 0.0000 1.0000
vn -1.0000 0.0000 0.0000
vn 0.3157 0.0000 -0.9489
vn 1.0000 0.0000 0.0000
vn 0.5345 -0.8452 -0.0000
vn 0.5345 0.8452 -0.0000
vn 0.0000 1.0000 0.0000
vn 0.0000 -1.0000 0.0000
vn 0.0000 0.0000 -1.0000
vn 0.3157 0.0000 0.9489
usemtl rightMate
s off
f 10/1/1 3/2/1 9/3/1
f 4/4/2 7/5/2 3/2/2
f 12/6/3 5/7/3 11/8/3
f 6/9/4 1/10/4 5/7/4
f 11/8/5 1/11/5 9/12/5
f 10/13/6 6/9/6 12/6/6
f 4/14/7 12/6/7 8/15/7
f 7/5/8 9/12/8 3/16/8
f 8/15/9 11/8/9 7/5/9
f 2/17/10 9/3/10 1/18/10
f 10/1/1 4/4/1 3/2/1
f 4/4/2 8/15/2 7/5/2
f 12/6/3 6/9/3 5/7/3
f 6/9/4 2/19/4 1/10/4
f 11/8/5 5/7/5 1/11/5
f 10/13/6 2/20/6 6/9/6
f 4/14/7 10/13/7 12/6/7
f 7/5/8 11/8/8 9/12/8
f 8/15/9 12/6/9 11/8/9
f 2/17/10 10/1/10 9/3/10
