# Blender v3.1.2 OBJ File: 'goal.blend'
# www.blender.org
mtllib core.mtl
o core
v 0.000000 -0.750000 0.000000
v 0.000000 0.750000 0.000000
v 0.000000 0.000000 0.750000
v 0.000000 0.000000 -0.750000
v 0.750000 0.000000 0.000000
v -0.750000 0.000000 0.000000
vt 0.245457 0.506565
vt 0.413863 0.420846
vt 0.413863 0.592284
vt 0.245457 0.249409
vt 0.077050 0.163690
vt 0.245457 0.077971
vt 0.413863 0.249409
vt 0.245457 0.163690
vt 0.413863 0.077971
vt 0.245457 0.420846
vt 0.077050 0.335128
vt 0.245457 0.249409
vt 0.245457 0.335128
vt 0.413863 0.163690
vt 0.582269 0.077971
vt 0.582269 0.249409
vt 0.413863 0.335128
vt 0.582269 0.249409
vt 0.582269 0.420846
vt 0.077050 0.506565
vt 0.245457 0.420846
vt 0.245457 0.592284
vn 0.5774 0.5774 -0.5774
vn -0.5774 -0.5774 0.5774
vn -0.5774 -0.5774 -0.5774
vn 0.5774 -0.5774 0.5774
vn 0.5774 -0.5774 -0.5774
vn 0.5774 0.5774 0.5774
vn -0.5774 0.5774 0.5774
vn -0.5774 0.5774 -0.5774
usemtl coreMate
s off
f 2/1/1 5/2/1 4/3/1
f 6/4/2 1/5/2 3/6/2
f 4/7/3 1/8/3 6/9/3
f 3/10/4 1/11/4 5/12/4
f 5/2/5 1/13/5 4/7/5
f 2/14/6 3/15/6 5/16/6
f 2/17/7 6/18/7 3/19/7
f 2/20/8 4/21/8 6/22/8
