# Blender 3.1.2
# www.blender.org
mtllib outsideLight.mtl
o outsideLight
v 1.177168 2.294557 0.058064
v 1.120641 2.294557 0.058064
v 1.120350 -0.980064 0.050131
v 0.597248 2.981335 0.058064
v 0.540374 2.981335 0.058064
v 1.470421 -0.977559 0.049750
v 1.470421 -0.977559 -0.049750
v 1.177168 2.294557 -0.058064
v 1.120641 2.294557 -0.058064
v 1.120350 -0.980064 -0.050131
v 0.597248 2.981335 -0.058064
v 0.540374 2.981335 -0.058064
v -1.177168 2.294557 -0.058064
v -0.597248 2.981335 -0.058064
v -1.120197 -0.979462 -0.050131
v -1.120641 2.294557 -0.058064
v -0.540374 2.981335 -0.058064
v -1.476673 -0.976942 -0.050135
v -1.120197 -0.979462 0.050131
v -1.120641 2.294557 0.058064
v -0.540374 2.981335 0.058064
v -1.476673 -0.976942 0.050135
v -1.177168 2.294557 0.058064
v -0.597248 2.981335 0.058064
vn 0.0072 -1.0000 -0.0000
vn -0.7640 0.6452 -0.0000
vn -0.0000 -0.0024 1.0000
vn -0.0000 -0.0000 -1.0000
vn 1.0000 0.0001 -0.0000
vn 0.7640 0.6452 -0.0000
vn -0.0000 1.0000 -0.0000
vn -0.7639 -0.6454 -0.0000
vn -1.0000 0.0001 -0.0000
vn 0.9960 0.0893 -0.0000
vn 0.7639 -0.6454 -0.0000
vn -0.0000 -0.0000 1.0000
vn -0.0071 -1.0000 -0.0000
vn -0.9958 0.0912 -0.0000
vn -0.0000 -0.0024 -1.0000
vn 0.0011 -0.0024 -1.0000
vn 0.0011 -0.0024 1.0000
vt 0.625000 0.687500
vt 0.671875 0.671875
vt 0.312500 0.687500
vt 0.625000 0.687500
vt 0.687500 0.687500
vt 0.671875 0.671875
vt 0.375000 0.687500
vt 0.375000 0.562500
vt 0.625000 0.562500
vt 0.640625 0.515625
vt 0.312500 0.562500
vt 0.625000 0.562500
vt 0.687500 0.562500
vt 0.640625 0.515625
vt 0.625000 0.187500
vt 0.875000 0.562500
vt 0.625000 0.187500
vt 0.187500 0.562500
vt 0.765625 0.609375
vt 0.765625 0.609375
vt 0.812500 0.562500
vt 0.125000 0.562500
vt 0.375000 0.437500
vt 0.187500 0.687500
vt 0.671875 0.828125
vt 0.812500 0.687500
vt 0.671875 0.828125
vt 0.125000 0.687500
vt 0.375000 0.812500
vt 0.625000 0.062500
vt 0.625000 0.062500
vt 0.875000 0.687500
s 0
usemtl outsideLightMate
f 7/8/1 3/3/1 10/11/1
f 14/17/2 23/30/2 24/32/2
f 20/25/3 23/30/3 19/24/3
f 13/15/4 14/16/4 16/19/4
f 9/10/4 11/12/4 8/9/4
f 15/18/5 20/25/5 19/24/5
f 11/12/6 1/1/6 8/9/6
f 12/13/7 4/4/7 11/12/7
f 5/6/8 9/10/8 2/2/8
f 2/2/9 10/11/9 3/3/9
f 8/9/10 6/7/10 7/8/10
f 16/19/11 21/27/11 20/25/11
f 17/21/7 24/32/7 21/27/7
f 1/1/12 4/4/12 2/2/12
f 18/22/13 19/24/13 22/28/13
f 13/15/14 22/29/14 23/30/14
f 7/8/1 6/7/1 3/3/1
f 14/17/2 13/15/2 23/30/2
f 20/25/12 21/26/12 24/31/12
f 23/30/3 22/28/3 19/24/3
f 20/25/12 24/31/12 23/30/12
f 14/16/4 17/20/4 16/19/4
f 16/19/15 15/18/15 13/15/15
f 15/18/15 18/23/15 13/15/15
f 7/8/16 10/11/16 8/9/16
f 10/11/15 9/10/15 8/9/15
f 9/10/4 12/13/4 11/12/4
f 15/18/5 16/19/5 20/25/5
f 11/12/6 4/4/6 1/1/6
f 12/13/7 5/5/7 4/4/7
f 5/6/8 12/14/8 9/10/8
f 2/2/9 9/10/9 10/11/9
f 8/9/10 1/1/10 6/7/10
f 16/19/11 17/21/11 21/27/11
f 17/21/7 14/17/7 24/32/7
f 4/4/12 5/6/12 2/2/12
f 2/2/3 3/3/3 1/1/3
f 3/3/17 6/7/17 1/1/17
f 18/22/13 15/18/13 19/24/13
f 13/15/14 18/23/14 22/29/14
