# Blender v3.1.2 OBJ File: 'crystal.blend'
# www.blender.org
mtllib crystal.mtl
o crystal_立方体
v -0.404871 -0.732683 0.198238
v -0.404871 0.732683 0.198238
v -0.404871 -0.732683 -0.198238
v -0.404871 0.732683 -0.198238
v 0.404871 -0.732683 0.198238
v 0.404871 0.732683 0.198238
v 0.404871 -0.732683 -0.198238
v 0.404871 0.732683 -0.198238
v -0.502037 -0.798705 0.000000
v -0.502037 0.798705 0.000000
v 0.502037 -0.798705 0.000000
v 0.502037 0.798705 0.000000
v 0.000000 -0.898213 -0.198238
v 0.000000 0.898213 -0.198238
v 0.000000 -0.898213 0.198238
v 0.000000 0.898213 0.198238
v 0.000000 1.000000 0.000000
v 0.000000 -1.000000 0.000000
v -0.404871 0.000000 0.198238
v -0.404871 0.000000 -0.198238
v 0.404871 0.000000 -0.198238
v 0.404871 0.000000 0.198238
v 0.502037 0.000000 0.000000
v -0.502037 0.000000 0.000000
v 0.000000 0.000000 0.198238
v 0.000000 0.000000 -0.198238
vt 0.500000 0.497971
vt 0.548386 0.133116
vt 0.548386 0.497971
vt 0.750000 0.497971
vt 0.951614 0.133116
vt 0.951614 0.497971
vt 0.000000 0.497971
vt 0.048386 0.133116
vt 0.048386 0.497971
vt 0.250000 0.497971
vt 0.451614 0.133116
vt 0.451614 0.497971
vt 0.250000 0.995942
vt 0.048386 0.862826
vt 0.250000 0.945255
vt 0.250000 0.000000
vt 0.250000 0.050687
vt 0.750000 0.000000
vt 0.750000 0.050687
vt 0.951614 0.862826
vt 0.750000 0.995942
vt 0.750000 0.945255
vt 1.000000 0.497971
vt 0.548386 0.862826
vt 0.500000 0.895703
vt 1.000000 0.100239
vt 0.000000 0.100239
vt 0.451614 0.862826
vt 1.000000 0.895703
vt 0.000000 0.895703
vt 0.500000 0.100239
vn -0.8979 0.0000 -0.4401
vn 0.0000 0.0000 -1.0000
vn 0.8979 0.0000 0.4401
vn 0.0000 0.0000 1.0000
vn 0.3418 -0.8360 0.4293
vn -0.3418 0.8360 0.4293
vn -0.3418 0.8360 -0.4293
vn 0.3418 -0.8360 -0.4293
vn 0.8979 0.0000 -0.4401
vn -0.8979 0.0000 0.4401
vn -0.3340 -0.8330 -0.4411
vn 0.3340 0.8330 -0.4411
vn 0.3340 0.8330 0.4411
vn -0.3340 -0.8330 0.4411
vn 0.3340 -0.8330 0.4411
vn -0.3340 0.8330 0.4411
vn -0.3340 0.8330 -0.4411
vn 0.3340 -0.8330 -0.4411
vn -0.3418 -0.8360 -0.4293
vn 0.3418 0.8360 -0.4293
vn 0.3418 0.8360 0.4293
vn -0.3418 -0.8360 0.4293
usemtl crystalMate
s off
f 24/1/1 4/2/1 20/3/1
f 26/4/2 8/5/2 21/6/2
f 23/7/3 6/8/3 22/9/3
f 25/10/4 2/11/4 19/12/4
f 18/13/5 5/14/5 15/15/5
f 17/16/6 2/11/6 16/17/6
f 4/2/7 17/18/7 14/19/7
f 7/20/8 18/21/8 13/22/8
f 8/5/9 23/23/9 21/6/9
f 2/11/10 24/1/10 19/12/10
f 3/24/11 18/21/11 9/25/11
f 8/5/12 17/18/12 12/26/12
f 17/16/13 6/8/13 12/27/13
f 18/13/14 1/28/14 9/25/14
f 6/8/4 25/10/4 22/9/4
f 4/2/2 26/4/2 20/3/2
f 3/24/2 26/4/2 13/22/2
f 5/14/4 25/10/4 15/15/4
f 1/28/10 24/1/10 9/25/10
f 7/20/9 23/23/9 11/29/9
f 25/10/4 1/28/4 15/15/4
f 23/7/3 5/14/3 11/30/3
f 26/4/2 7/20/2 13/22/2
f 24/1/1 3/24/1 9/25/1
f 24/1/1 10/31/1 4/2/1
f 26/4/2 14/19/2 8/5/2
f 23/7/3 12/27/3 6/8/3
f 25/10/4 16/17/4 2/11/4
f 18/13/15 11/30/15 5/14/15
f 17/16/16 10/31/16 2/11/16
f 4/2/17 10/31/17 17/18/17
f 7/20/18 11/29/18 18/21/18
f 8/5/9 12/26/9 23/23/9
f 2/11/10 10/31/10 24/1/10
f 3/24/19 13/22/19 18/21/19
f 8/5/20 14/19/20 17/18/20
f 17/16/21 16/17/21 6/8/21
f 18/13/22 15/15/22 1/28/22
f 6/8/4 16/17/4 25/10/4
f 4/2/2 14/19/2 26/4/2
f 3/24/2 20/3/2 26/4/2
f 5/14/4 22/9/4 25/10/4
f 1/28/10 19/12/10 24/1/10
f 7/20/9 21/6/9 23/23/9
f 25/10/4 19/12/4 1/28/4
f 23/7/3 22/9/3 5/14/3
f 26/4/2 21/6/2 7/20/2
f 24/1/1 20/3/1 3/24/1
