# Blender v3.1.2 OBJ File: ''
# www.blender.org
mtllib soil.mtl
o Soil_Cube
v 1.000000 1.000000 -1.000000
v 1.000000 -1.000000 -1.000000
v 1.000000 1.000000 1.000000
v 1.000000 -1.000000 1.000000
v -1.000000 1.000000 -1.000000
v -1.000000 -1.000000 -1.000000
v -1.000000 1.000000 1.000000
v -1.000000 -1.000000 1.000000
vt 0.644357 0.359549
vt 0.338716 0.665190
vt 0.338716 0.359549
vt 0.753121 0.292327
vt 0.502861 0.046114
vt 0.753121 0.045332
vt 0.502861 0.293569
vt 0.252607 0.046293
vt 0.946629 0.799091
vt 0.799132 0.946588
vt 0.799132 0.799091
vt 0.999286 0.291084
vt 0.999286 0.045113
vt 0.252607 0.294328
vt 0.002111 0.045910
vt 0.644357 0.665190
vt 0.946629 0.946588
vt 0.002111 0.295088
vn 0.0000 1.0000 0.0000
vn 0.0000 0.0000 1.0000
vn -1.0000 0.0000 0.0000
vn 0.0000 -1.0000 0.0000
vn 1.0000 0.0000 0.0000
vn 0.0000 0.0000 -1.0000
usemtl SoilMaterial
s off
f 5/1/1 3/2/1 1/3/1
f 3/4/2 8/5/2 4/6/2
f 7/7/3 6/8/3 8/5/3
f 2/9/4 8/10/4 6/11/4
f 1/12/5 4/6/5 2/13/5
f 5/14/6 2/15/6 6/8/6
f 5/1/1 7/16/1 3/2/1
f 3/4/2 7/7/2 8/5/2
f 7/7/3 5/14/3 6/8/3
f 2/9/4 4/17/4 8/10/4
f 1/12/5 3/4/5 4/6/5
f 5/14/6 1/18/6 2/15/6
