# Blender v3.1.2 OBJ File: 'grid.blend'
# www.blender.org
mtllib grid.mtl
o Grid_立方体.001
v -1.050000 -1.050000 1.050000
v -1.050000 1.050000 1.050000
v -1.050000 -1.050000 -1.050000
v -1.050000 1.050000 -1.050000
v 1.050000 -1.050000 1.050000
v 1.050000 1.050000 1.050000
v 1.050000 -1.050000 -1.050000
v 1.050000 1.050000 -1.050000
v -1.050000 1.050000 -0.984375
v 1.050000 -1.050000 -0.984375
v 1.050000 1.050000 -0.984375
v -1.050000 -1.050000 -0.984375
v -1.050000 -1.050000 0.984375
v 1.050000 1.050000 0.984375
v -1.050000 1.050000 0.984375
v 1.050000 -1.050000 0.984375
v -1.050000 0.984375 1.050000
v -1.050000 0.984375 -1.050000
v 1.050000 0.984375 -1.050000
v 1.050000 0.984375 1.050000
v 1.050000 0.984375 -0.984375
v -1.050000 0.984375 -0.984375
v -1.050000 0.984375 0.984375
v 1.050000 0.984375 0.984375
v -0.984375 -1.050000 -1.050000
v -0.984375 1.050000 1.050000
v -0.984375 -1.050000 1.050000
v -0.984375 1.050000 -1.050000
v -0.984375 -1.050000 -0.984375
v -0.984375 1.050000 -0.984375
v -0.984375 -1.050000 0.984375
v -0.984375 1.050000 0.984375
v -0.984375 0.984375 -1.050000
v -0.984375 0.984375 1.050000
v 0.984375 1.050000 -1.050000
v 0.984375 -1.050000 1.050000
v 0.984375 -1.050000 -1.050000
v 0.984375 1.050000 1.050000
v 0.984375 -1.050000 -0.984375
v 0.984375 1.050000 -0.984375
v 0.984375 1.050000 0.984375
v 0.984375 -1.050000 0.984375
v 0.984375 0.984375 1.050000
v 0.984375 0.984375 -1.050000
v -1.050000 -0.984375 -1.050000
v 1.050000 -0.984375 -1.050000
v 1.050000 -0.984375 1.050000
v -1.050000 -0.984375 1.050000
v 1.050000 -0.984375 -0.984375
v -1.050000 -0.984375 -0.984375
v 1.050000 -0.984375 0.984375
v -1.050000 -0.984375 0.984375
v -0.984375 -0.984375 -1.050000
v -0.984375 -0.984375 1.050000
v 0.984375 -0.984375 1.050000
v 0.984375 -0.984375 -1.050000
vt 0.617188 0.242188
vt 0.625000 0.250000
vt 0.617188 0.250000
vt 0.617188 0.492188
vt 0.625000 0.500000
vt 0.617188 0.500000
vt 0.617188 0.742188
vt 0.625000 0.750000
vt 0.617188 0.750000
vt 0.617188 0.992188
vt 0.625000 1.000000
vt 0.617188 1.000000
vt 0.367188 0.742188
vt 0.375000 0.750000
vt 0.367188 0.750000
vt 0.867188 0.742188
vt 0.875000 0.750000
vt 0.867188 0.750000
vt 0.132812 0.742188
vt 0.132812 0.750000
vt 0.382812 0.742188
vt 0.382812 0.750000
vt 0.000000 0.000000
vt 0.000000 0.000000
vt 0.000000 0.000000
vt 0.000000 0.000000
vt 0.000000 0.000000
vt 0.000000 0.000000
vt 0.382812 0.492188
vt 0.375000 0.257812
vt 0.382812 0.257812
vt 0.625000 0.257812
vt 0.617188 0.257812
vt 0.875000 0.507812
vt 0.875000 0.742188
vt 0.375000 0.742188
vt 0.367188 0.507812
vt 0.375000 0.507812
vt 0.132812 0.507812
vt 0.125000 0.742188
vt 0.125000 0.507812
vt 0.382812 0.507812
vt 0.382812 0.500000
vt 0.375000 0.757812
vt 0.382812 0.992188
vt 0.375000 0.992188
vt 0.000000 0.000000
vt 0.000000 0.000000
vt 0.000000 0.000000
vt 0.625000 0.507812
vt 0.617188 0.507812
vt 0.382812 0.242188
vt 0.382812 0.250000
vt 0.367188 0.500000
vt 0.867188 0.500000
vt 0.867188 0.507812
vt 0.617188 0.000000
vt 0.625000 0.007812
vt 0.617188 0.007812
vt 0.382812 1.000000
vt 0.625000 0.757812
vt 0.617188 0.757812
vt 0.632812 0.742188
vt 0.632812 0.507812
vt 0.000000 0.000000
vt 0.632812 0.500000
vt 0.000000 0.000000
vt 0.125000 0.500000
vt 0.375000 0.007812
vt 0.375000 0.242188
vt 0.632812 0.750000
vt 0.125000 0.750000
vt 0.382812 0.000000
vt 0.382812 0.007812
vt 0.000000 0.000000
vt 0.625000 0.742188
vt 0.382812 0.757812
vt 0.375000 0.250000
vt 0.375000 0.000000
vt 0.375000 0.500000
vt 0.375000 1.000000
vt 0.375000 0.492188
vt 0.000000 0.000000
vt 0.000000 0.000000
vt 0.000000 0.000000
vt 0.000000 0.000000
vt 0.000000 0.000000
vt 0.000000 0.000000
vt 0.000000 0.000000
vt 0.000000 0.000000
vt 0.000000 0.000000
vt 0.000000 0.000000
vt 0.000000 0.000000
vt 0.000000 0.000000
vt 0.625000 0.242188
vt 0.625000 0.492188
vt 0.625000 0.992188
vt 0.875000 0.500000
vt 0.625000 0.000000
vt 0.132812 0.500000
vn -1.0000 0.0000 0.0000
vn 0.0000 0.0000 -1.0000
vn 1.0000 0.0000 0.0000
vn 0.0000 0.0000 1.0000
vn 0.0000 -1.0000 0.0000
vn 0.0000 1.0000 0.0000
vn 0.7071 0.0000 -0.7071
vn 0.5774 -0.5774 0.5774
vn -0.7071 0.0000 0.7071
vn 0.7071 0.0000 0.7071
vn 0.5774 -0.5774 -0.5774
vn -0.5774 -0.5774 0.5774
vn -0.7071 0.0000 -0.7071
vn -0.7071 -0.7071 0.0000
vn 0.0000 -0.7071 0.7071
vn 0.7071 -0.7071 0.0000
vn 0.0000 -0.7071 -0.7071
vn 0.0000 0.7071 0.7071
vn 0.7071 0.7071 0.0000
vn 0.0000 0.7071 -0.7071
vn -0.7071 0.7071 0.0000
vn 0.5774 0.5774 0.5774
vn 0.5774 0.5774 -0.5774
vn -0.5774 0.5774 -0.5774
vn -0.5774 0.5774 0.5774
vn -0.5774 -0.5774 -0.5774
usemtl gridMate
s off
f 22/1/1 4/2/1 18/3/1
f 44/4/2 8/5/2 19/6/2
f 24/7/3 6/8/3 20/9/3
f 34/10/4 2/11/4 17/12/4
f 42/13/5 5/14/5 36/15/5
f 32/16/6 2/17/6 26/18/6
f 31/19/5 36/15/5 27/20/5
f 51/21/3 20/9/3 47/22/3
f 34/23/7 52/24/7 23/25/7
f 30/26/8 22/27/8 33/28/8
f 56/29/2 25/30/2 53/31/2
f 28/32/2 44/4/2 33/33/2
f 32/16/6 9/34/6 15/35/6
f 16/36/5 39/37/5 10/38/5
f 29/39/5 13/40/5 12/41/5
f 19/6/3 49/42/3 46/43/3
f 36/44/4 54/45/4 27/46/4
f 21/47/9 44/48/9 56/49/9
f 11/50/3 24/7/3 21/51/3
f 50/52/1 18/3/1 45/53/1
f 19/6/3 11/50/3 21/51/3
f 37/54/5 10/38/5 39/37/5
f 28/55/6 9/34/6 30/56/6
f 17/57/1 15/58/1 23/59/1
f 48/60/4 34/10/4 17/12/4
f 38/61/4 34/10/4 43/62/4
f 41/63/6 11/50/6 40/64/6
f 33/28/10 22/27/10 50/65/10
f 35/66/6 30/56/6 40/64/6
f 32/67/11 34/23/11 23/25/11
f 44/4/2 46/43/2 56/29/2
f 3/68/5 29/39/5 12/41/5
f 13/69/1 50/52/1 12/70/1
f 18/3/2 28/32/2 33/33/2
f 45/53/2 33/33/2 53/31/2
f 38/71/6 32/16/6 26/18/6
f 13/40/5 27/20/5 1/72/5
f 48/73/1 23/59/1 52/74/1
f 15/58/1 22/1/1 23/59/1
f 40/75/12 44/48/12 21/47/12
f 43/62/4 47/22/4 20/9/4
f 8/5/6 40/64/6 11/50/6
f 20/9/4 38/61/4 43/62/4
f 14/76/6 38/71/6 6/8/6
f 51/21/3 10/38/3 49/42/3
f 5/14/4 55/77/4 36/44/4
f 3/78/2 53/31/2 25/30/2
f 1/79/1 52/74/1 13/69/1
f 37/54/5 29/39/5 25/30/5
f 7/80/3 49/42/3 10/38/3
f 27/46/4 48/60/4 1/81/4
f 16/36/3 47/22/3 5/14/3
f 37/82/2 46/43/2 7/80/2
f 12/70/1 45/53/1 3/78/1
f 51/83/13 55/84/13 43/85/13
f 24/86/14 41/87/14 40/75/14
f 33/28/15 44/48/15 40/75/15
f 23/25/16 30/26/16 32/67/16
f 34/23/17 41/87/17 43/85/17
f 39/88/18 56/49/18 53/89/18
f 31/90/19 50/65/19 52/24/19
f 42/91/20 54/92/20 55/84/20
f 42/91/21 51/83/21 49/93/21
f 53/89/22 50/65/22 29/94/22
f 52/24/23 54/92/23 31/90/23
f 51/83/24 42/91/24 55/84/24
f 49/93/25 56/49/25 39/88/25
f 24/86/26 43/85/26 41/87/26
f 22/1/1 9/95/1 4/2/1
f 44/4/2 35/96/2 8/5/2
f 24/7/3 14/76/3 6/8/3
f 34/10/4 26/97/4 2/11/4
f 42/13/5 16/36/5 5/14/5
f 32/16/6 15/35/6 2/17/6
f 31/19/5 42/13/5 36/15/5
f 51/21/3 24/7/3 20/9/3
f 34/23/7 54/92/7 52/24/7
f 56/29/2 37/54/2 25/30/2
f 28/32/2 35/96/2 44/4/2
f 32/16/6 30/56/6 9/34/6
f 16/36/5 42/13/5 39/37/5
f 29/39/5 31/19/5 13/40/5
f 19/6/3 21/51/3 49/42/3
f 36/44/4 55/77/4 54/45/4
f 21/47/9 56/49/9 49/93/9
f 11/50/3 14/76/3 24/7/3
f 50/52/1 22/1/1 18/3/1
f 19/6/3 8/5/3 11/50/3
f 37/54/5 7/80/5 10/38/5
f 28/55/6 4/98/6 9/34/6
f 17/57/1 2/99/1 15/58/1
f 48/60/4 54/45/4 34/10/4
f 38/61/4 26/97/4 34/10/4
f 41/63/6 14/76/6 11/50/6
f 33/28/10 50/65/10 53/89/10
f 35/66/6 28/55/6 30/56/6
f 44/4/2 19/6/2 46/43/2
f 3/68/5 25/100/5 29/39/5
f 13/69/1 52/74/1 50/52/1
f 18/3/2 4/2/2 28/32/2
f 45/53/2 18/3/2 33/33/2
f 38/71/6 41/63/6 32/16/6
f 13/40/5 31/19/5 27/20/5
f 48/73/1 17/57/1 23/59/1
f 15/58/1 9/95/1 22/1/1
f 43/62/4 55/77/4 47/22/4
f 8/5/6 35/66/6 40/64/6
f 20/9/4 6/8/4 38/61/4
f 14/76/6 41/63/6 38/71/6
f 51/21/3 16/36/3 10/38/3
f 5/14/4 47/22/4 55/77/4
f 3/78/2 45/53/2 53/31/2
f 1/79/1 48/73/1 52/74/1
f 37/54/5 39/37/5 29/39/5
f 7/80/3 46/43/3 49/42/3
f 27/46/4 54/45/4 48/60/4
f 16/36/3 51/21/3 47/22/3
f 37/82/2 56/29/2 46/43/2
f 12/70/1 50/52/1 45/53/1
f 51/83/13 43/85/13 24/86/13
f 24/86/14 40/75/14 21/47/14
f 33/28/15 40/75/15 30/26/15
f 23/25/16 22/27/16 30/26/16
f 34/23/17 32/67/17 41/87/17
f 39/88/18 53/89/18 29/94/18
f 31/90/19 29/94/19 50/65/19
f 42/91/20 31/90/20 54/92/20
f 42/91/21 49/93/21 39/88/21
