# Blender v3.1.2 OBJ File: 'spring.blend'
# www.blender.org
mtllib shell.mtl
o topShell_立方体.010
v 0.037501 0.600000 0.843157
v 0.035966 0.700584 -0.421012
v 0.841783 0.600000 0.038875
v 0.418269 0.700584 0.041182
v 0.038272 0.600000 -0.844526
v 0.039807 0.700584 0.419644
v 0.842107 0.600000 -0.040692
v 0.039807 0.499416 0.419644
v 0.418269 0.499416 0.041182
v -0.046938 0.600000 0.844966
v -0.850772 0.600000 0.041131
v -0.427258 0.700584 0.038825
v -0.044631 0.700584 0.421452
v -0.427258 0.499416 0.038825
v -0.044631 0.499416 0.421452
v -0.846813 0.600000 -0.039364
v -0.042531 0.600000 -0.843646
v -0.044837 0.700584 -0.420132
v -0.423299 0.700584 -0.041670
v -0.423299 0.499416 -0.041670
v -0.044837 0.499416 -0.420132
v 0.418593 0.700584 -0.038385
v 0.035966 0.499416 -0.421012
v 0.418593 0.499416 -0.038385
vt 0.125000 0.750000
vt 0.687500 0.687500
vt 0.812500 0.687500
vt 0.187500 0.687500
vt 0.625000 0.750000
vt 0.687500 0.562500
vt 0.375000 0.750000
vt 0.625000 0.500000
vt 0.312500 0.687500
vt 0.312500 0.562500
vt 0.812500 0.687500
vt 0.125000 0.500000
vt 0.875000 0.750000
vt 0.187500 0.687500
vt 0.187500 0.562500
vt 0.875000 0.500000
vt 0.312500 0.562500
vt 0.187500 0.562500
vt 0.812500 0.562500
vt 0.375000 0.500000
vt 0.312500 0.687500
vt 0.687500 0.687500
vt 0.812500 0.562500
vt 0.687500 0.562500
vn 0.2262 0.9474 0.2262
vn 0.2262 -0.9474 0.2262
vn 0.2240 0.9485 -0.2240
vn 0.2240 -0.9485 -0.2240
vn -0.2240 0.9485 0.2240
vn -0.2240 -0.9485 0.2240
vn -0.2262 -0.9474 -0.2262
vn -0.2262 0.9474 -0.2262
usemtl topShell
s off
f 1/1/1 4/2/1 6/3/1
f 8/4/2 3/5/2 1/1/2
f 2/6/3 7/7/3 5/8/3
f 5/8/4 24/9/4 23/10/4
f 13/11/5 11/12/5 10/13/5
f 15/14/6 11/12/6 14/15/6
f 16/16/7 21/17/7 20/18/7
f 19/19/8 17/20/8 16/16/8
f 1/1/1 3/5/1 4/2/1
f 8/4/2 9/21/2 3/5/2
f 2/6/3 22/22/3 7/7/3
f 5/8/4 7/7/4 24/9/4
f 13/11/5 12/23/5 11/12/5
f 15/14/6 10/13/6 11/12/6
f 16/16/7 17/20/7 21/17/7
f 19/19/8 18/24/8 17/20/8
