# Blender v3.1.2 OBJ File: 'magnet.blend'
# www.blender.org
mtllib magnet.mtl
o magnet_立方体
v 0.666667 -1.000000 0.200000
v 1.000000 1.000000 0.200000
v -0.666667 -1.000000 0.200000
v -1.000000 1.000000 0.200000
v 0.666667 -1.000000 -0.200000
v 1.000000 1.000000 -0.200000
v -0.666667 -1.000000 -0.200000
v -1.000000 1.000000 -0.200000
v 0.333333 -0.600000 0.200000
v -0.333333 -0.600000 0.200000
v -0.333333 -0.600000 -0.200000
v 0.333333 -0.600000 -0.200000
v 0.666667 1.000000 -0.200000
v 0.666667 1.000000 0.200000
v -0.666667 1.000000 0.200000
v -0.666667 1.000000 -0.200000
v 0.000000 -1.000000 0.200000
v 0.000000 -0.600000 0.200000
v -0.000000 -1.000000 -0.200000
v -0.000000 -0.600000 -0.200000
vt 0.751683 0.709068
vt 0.758803 0.409152
vt 0.808789 0.410339
vt 0.881238 0.653109
vt 0.821238 0.354176
vt 0.881238 0.354176
vt 0.035938 0.549555
vt 0.285938 0.549555
vt 0.285938 0.591222
vt 0.335938 0.590333
vt 0.285938 0.341222
vt 0.335938 0.341222
vt 0.377604 0.773666
vt 0.335938 0.723666
vt 0.377604 0.723666
vt 0.553180 0.630862
vt 0.613180 0.389904
vt 0.613180 0.630862
vt 0.385938 0.632000
vt 0.335938 0.673666
vt 0.335938 0.632000
vt 0.335938 0.673666
vt 0.285938 0.757000
vt 0.285938 0.673666
vt 0.670875 0.232736
vt 0.670875 0.532736
vt 0.620875 0.292736
vt 0.035938 0.466222
vt 0.085938 0.507889
vt 0.035938 0.632889
vt 0.285938 0.632889
vt 0.085938 0.674556
vt 0.651711 0.706694
vt 0.703121 0.647898
vt 0.285938 0.591222
vt 0.435938 0.341222
vt 0.385938 0.542020
vt 0.385938 0.341222
vt 0.720875 0.532736
vt 0.874672 0.730899
vt 0.824672 0.670899
vt 0.874672 0.670899
vt 0.035938 0.716222
vt 0.570875 0.232736
vt 0.612774 0.634653
vt 0.552774 0.734653
vt 0.552774 0.634653
vt 0.612239 0.328348
vt 0.552239 0.378348
vt 0.552239 0.328348
vt 0.821238 0.653109
vt 0.285937 0.590333
vt 0.335938 0.773666
vt 0.553180 0.389904
vt 0.385938 0.673666
vt 0.335938 0.757000
vt 0.085938 0.466222
vt 0.653135 0.646711
vt 0.435938 0.542020
vt 0.824672 0.730899
vt 0.085938 0.716222
vt 0.570875 0.292736
vt 0.612774 0.734653
vt 0.612239 0.378348
vn 0.0000 0.0000 1.0000
vn -0.9864 -0.1644 0.0000
vn 0.0000 0.0000 -1.0000
vn 0.9864 -0.1644 0.0000
vn 0.0000 1.0000 0.0000
vn 0.9790 0.2040 0.0000
vn 0.0000 -1.0000 0.0000
vn -0.9790 0.2040 0.0000
usemtl magnetMate
s off
f 3/1/1 15/2/1 4/3/1
f 4/4/2 7/5/2 3/6/2
f 5/7/3 13/8/3 6/9/3
f 6/10/4 1/11/4 5/12/4
f 14/13/5 6/14/5 13/15/5
f 15/16/6 11/17/6 16/18/6
f 18/19/5 12/20/5 20/21/5
f 19/22/7 1/23/7 17/24/7
f 7/25/3 16/26/3 11/27/3
f 19/28/3 12/29/3 5/7/3
f 1/30/1 14/31/1 9/32/1
f 17/33/1 10/34/1 3/1/1
f 1/30/1 2/35/1 14/31/1
f 9/36/8 13/37/8 12/38/8
f 5/7/3 12/29/3 13/8/3
f 7/25/3 8/39/3 16/26/3
f 4/40/5 16/41/5 8/42/5
f 3/1/1 10/34/1 15/2/1
f 9/32/1 17/43/1 1/30/1
f 11/27/3 19/44/3 7/25/3
f 7/45/7 17/46/7 3/47/7
f 10/48/5 20/49/5 11/50/5
f 4/4/2 8/51/2 7/5/2
f 6/10/4 2/52/4 1/11/4
f 14/13/5 2/53/5 6/14/5
f 15/16/6 10/54/6 11/17/6
f 18/19/5 9/55/5 12/20/5
f 19/22/7 5/56/7 1/23/7
f 19/28/3 20/57/3 12/29/3
f 17/33/1 18/58/1 10/34/1
f 9/36/8 14/59/8 13/37/8
f 4/40/5 15/60/5 16/41/5
f 9/32/1 18/61/1 17/43/1
f 11/27/3 20/62/3 19/44/3
f 7/45/7 19/63/7 17/46/7
f 10/48/5 18/64/5 20/49/5
